<?xml version="1.0" encoding="utf-8"?>
<!-- Generator: Adobe Illustrator 19.0.0, SVG Export Plug-In . SVG Version: 6.00 Build 0)  -->
<svg version="1.1" id="Calque_1" xmlns="http://www.w3.org/2000/svg" xmlns:xlink="http://www.w3.org/1999/xlink" x="0px" y="0px"
	 viewBox="-23 202 565 390" style="enable-background:new -23 202 565 390;" xml:space="preserve">
<style type="text/css">
	.st0{fill:#434A54;}
	.st1{fill:#373D46;}
	.st2{fill:#939BA3;}
	.st3{fill:#B8BEC7;}
	.st4{fill:#FFFFFF;}
	.st5{fill:#8D939C;}
	.st6{fill:#E5EBF4;}
	.st7{fill:#C1C7D0;}
	.st8{fill:#9AA99B;}
	.st9{fill:#C6CCD5;}
	.st10{fill:#4E5660;}
	.st11{fill:#B9BFC8;}
	.st12{fill:#FCDE80;}
	.st13{fill:#FFCE46;}
	.st14{fill:#F18F27;}
	.st15{fill:#FBE7A8;}
	.st16{fill:#F6AC38;}
	.st17{fill:#E0BD59;}
	.st18{fill:#9A1C1F;}
	.st19{fill:#FBF4F6;}
	.st20{fill:#9CA9A0;}
	.st21{fill:#DCE2EB;}
	.st22{fill:#D42627;}
	.st23{fill:#CCD1D9;}
	.st24{fill:none;}
</style>
<g>
	<path class="st0" d="M296.9,318.8c5-3.4,12.7-4.4,17.2,0.2c2.8,2.9,5.7,6,6.7,10c0.8,3-1.3,5.6-2.7,8c-7.6,12.2-16,23.8-25,35.1
		c-2.7,3.5-5.7,7.2-5.9,11.8c-0.4,6.4,0.2,12.7-0.3,19.1c-0.7,7-1.3,14-1.8,21c-0.4,5.1,0.6,10.9-2.8,15.2c-2.5,2.5-6.3,4.5-9.9,3.4
		c-2.3-0.8-3.8-2.9-5.3-4.7c-3.6-4.7-7.4-9.3-10.7-14.3c-1.7-2.5-1.7-5.7-1.8-8.6c-0.1-8.8,0.9-17.6-0.1-26.3
		c-0.6-5.7-4.5-10.1-7.3-14.8c-6.7-9.6-13.3-19.3-20.2-28.8c-2.9-4.5-6.8-9.3-5.9-15c0.6-5.1,5.3-8.5,9.9-9.9
		c5.6-2,11.8-0.7,16.9,1.8c3.2,2.1,5.1,5.5,7.5,8.4c5.7,7.4,8.2,16.5,12.7,24.6c4.2-2,6.5-6.1,9-9.8
		C283,335.9,287.8,325.5,296.9,318.8z"/>
	<rect x="97" y="275.1" class="st0" width="359.3" height="213.6"/>
</g>
<g id="_x23_373d46ff">
	<path class="st1" d="M473.2,208.1c3.8,2.1,7.8,3.6,12.1,4.2c0.1,2.9,0.1,5.8,0.1,8.8c-2.9-0.7-5.7-1.4-8.6-2.2
		c-0.2,5.7,0.1,11.3-0.3,17c-0.3,3.6-3.9,6.3-7.4,5.9c-4.4-0.7-6.9-7-3.4-10.1c1.9-2.1,5.1-1.3,7.6-1.4
		C473.2,222.9,472.9,215.5,473.2,208.1z"/>
	<path class="st1" d="M112.3,235.3c8.2-8.3,20-13,31.7-12.3c21.7-0.1,41.2,19.4,41.1,41.1c0.4,8-1.5,15.9-5.2,22.9
		c-5.5,8.8-13.6,16.2-23.5,19.5c-5.9,2.1-12.1,2.2-18.3,2.6c0,4.4,0,8.9-0.8,13.3c-2.9,8.7,7.6,14.8,6.5,23.4
		c-5.7,0.4-11.3-1.2-16.9-1.6c-2.9-0.4-5.2,1.8-7.6,3c-3.7,2.4-8.1,3.6-12.4,4.4c-7.3,1-14.9,0.6-21.7-2.5
		c-11.1-4.8-19.5-15.2-21.8-27c-0.7-4.8-0.7-9.6-0.2-14.4c2.1-12.2,10.6-23.1,22-27.9c4.9-2.2,10.2-2.8,15.4-3.7c-0.5-4-1-8-1-12
		C100.1,253.3,104.6,242.8,112.3,235.3 M110.1,247c-5.3,8.9-6.4,20.1-3.3,30c13.7,2.3,25.6,12.5,29.7,25.8c6.2,1,12.6,0.5,18.5-1.7
		c11.3-3.9,20.3-13.7,23.6-25.2c2.9-10.1,1.3-21.3-4.3-30.2c-7.6-12.4-22.8-19.5-37.2-17.2C125.9,230.1,115.6,237.1,110.1,247
		 M88.3,284.3C73.8,289.9,65,306.9,69,322c3.4,15.5,19.3,26.8,35.1,24.7c7.1-0.5,13.3-4.4,19-8.3c4.6,0.3,9.2,1.1,13.8,1.7
		c-2.1-4.3-4.5-8.5-6.5-12.9c4.2-10.6,2.9-23.3-4.1-32.4C117.8,283.2,101.4,278.6,88.3,284.3z"/>
	<path class="st1" d="M490.8,233.9c5.5,5.2,12.9,7.6,20.3,8.1c-2.1,9.3-3.9,18.7-6.1,28c-0.8,5.1-8.5,6.4-11.3,2.3
		c-1.4-2.4-1.7-6,0.8-7.8c2.4-2.1,5.8-1.5,8.6-0.7c0.8-4.6,1.7-9.2,2.7-13.7c-4.9-0.7-9.8-2.2-13.9-5c-1.2,5.2-2.3,10.5-3.6,15.8
		c-0.9,4.1-6.2,6.7-9.8,4.4c-3.4-2.1-3.9-7.9-0.3-10.1c2.4-1.7,5.4-0.2,7.9,0.3C487.6,248.3,489,241.1,490.8,233.9z"/>
	<path class="st1" d="M166.3,266.3c2.1-2.1,6.1-0.3,6,2.6c0.3,2.5-2.6,4.6-4.9,3.6C164.8,271.8,164.1,268,166.3,266.3z"/>
	<path class="st1" d="M115.2,268.2c2.1-1.3,5.3,0.3,5.3,2.9c0.5,2.8-2.8,5.1-5.2,3.6C112.6,273.5,112.6,269.4,115.2,268.2z"/>
	<path class="st1" d="M130.4,280.6c7.2-0.6,14.5-0.6,21.7-1.1c2,0,4.7-0.7,5.8,1.5c0,7.3-6.6,13.7-13.8,14
		c-6.9,0.6-13.7-4.4-15.4-11C128.1,282.6,128.9,280.8,130.4,280.6z"/>
	<path class="st1" d="M516.6,281.5c2.9-3.7,9.8-0.2,8.2,4.4c-1,4-5.9,3-8.8,1.8c-2.5,4.9-4,10.5-7.7,14.6c-1.3-3,0.8-5.7,1.9-8.3
		C512.2,289.8,514,285.4,516.6,281.5z"/>
	<path class="st1" d="M488.3,283c2.4,2.5,5.1,4.7,8.1,6.5c-0.7,2.3-1.4,4.5-2.2,6.7c-2-1.3-4-2.6-5.9-3.9
		c-2.3,4.8-2.8,10.6-6.3,14.7c-3.6,3.4-10.1-1.3-7.9-5.9c1.5-3.4,5.8-2.5,8.6-1.5C484.5,294,486.3,288.4,488.3,283z"/>
	<path class="st1" d="M82.7,299.6c10.1-1.6,20.1-3.7,30.3-3.9c2.2-0.1,4.3,0.5,6.3,1.2c-0.7,5.6-5.9,8.4-9.9,11.4
		c-3.3,5.4,1.1,11.9-0.2,17.6c-2.5,5.5-9.2,8.3-15,7.4c-3.4-0.4-5.8-3.5-6.9-6.5C83.9,318.2,82.1,308.9,82.7,299.6z"/>
	<path class="st1" d="M296.6,302.6c8-2.8,17.1-2,24.4,2.5c8.1,5.2,14.4,12.9,18.3,21.7c1.1,5,1.1,10.5-0.1,15.5
		c-7.1,16.3-20.1,28.8-29,44.1c-1.4,2.3-2.2,5-2.5,7.7c-2.2,15.2-3.6,30.6-4.7,46c-0.2,12.8-11.7,23.4-24,24.8
		c-9.5,1.2-19.9-2.3-26-9.9c-5.5-6.9-12-13.3-15.4-21.6c-4.5-13.9,2.4-29.7-4.9-42.9c-7.4-12.1-16.1-23.5-23.3-35.7
		c-3.9-6.8-7.7-14.5-6.2-22.5c1.2-9.6,7.9-18,16.4-22.4c7.4-2.6,15.5-3,23.3-2c5.3,0.5,10.8,0.9,15.4,3.8c4.8,2.8,8.4,7.1,12.6,10.7
		C278.9,314.9,286,305.9,296.6,302.6 M296.9,318.8c-9,6.7-13.9,17.1-19.7,26.4c-2.5,3.6-4.8,7.8-9,9.8c-4.5-8.1-7-17.2-12.7-24.6
		c-2.4-2.9-4.3-6.3-7.5-8.4c-5.2-2.5-11.4-3.9-16.9-1.8c-4.6,1.3-9.3,4.7-9.9,9.9c-1,5.7,2.9,10.5,5.9,15
		c6.9,9.5,13.5,19.2,20.2,28.8c2.8,4.7,6.7,9.2,7.3,14.8c1,8.8,0,17.6,0.1,26.3c0.1,2.9,0.1,6.1,1.8,8.6c3.3,5,7.1,9.6,10.7,14.3
		c1.5,1.8,2.9,4,5.3,4.7c3.6,1.1,7.4-0.9,9.9-3.4c3.4-4.3,2.5-10.1,2.8-15.2c0.6-7,1.2-14,1.8-21c0.5-6.4-0.1-12.7,0.3-19.1
		c0.3-4.6,3.3-8.3,5.9-11.8c8.9-11.2,17.4-22.9,25-35.1c1.4-2.5,3.4-5,2.7-8c-1-4-4-7.1-6.7-10C309.5,314.4,301.8,315.4,296.9,318.8
		z"/>
	<path class="st1" d="M488.1,324.3c2.6-4.1,5.2-8.2,8.1-12.1c2.2,4.6,6.3,7.9,10.8,10.1c-3.5,5.4-6.9,10.9-10.7,16.2
		c-1.6,2.7-6.1,2.2-7.5-0.5c-0.9-2-0.2-4.9,2.1-5.5c2-0.8,4,0.6,5.8,1.4c1.6-2.5,3.3-5,4.9-7.6c-2.8-1.8-5.3-4-7.7-6.3
		c-3,3.4-4.2,9-9,10.5c-4,1.3-6.7-4.7-3.6-7.2C483.5,321.3,486,323.3,488.1,324.3z"/>
	<path class="st1" d="M476.4,351.3c0.4-2.3,0.8-5.3,3.6-5.7c3.1-1.1,6.1,2.4,4.9,5.3c-1.2,2.5-4.3,2.1-6.6,2.3
		c-0.6,4.6-1.3,9.3-2.2,13.9c-0.4-0.5-1.3-1.4-1.8-1.9C474.9,360.5,475.7,355.9,476.4,351.3z"/>
</g>
<g id="_x23_939ba3ff">
	<path class="st2" d="M-7.8,221.3c3.1-1,5.7,2,8.8,1.6c5.8-0.1,10.9,5.3,10.9,11c0.6,6.5-5.4,12.7-12,12.3
		c-5.7,0-10.8-4.6-11.4-10.3c-0.8-3.9,2.4-7.2,1.8-11.1C-9.9,223.4-9.1,222-7.8,221.3 M-8,225.9c0.6,1.6,2.8,0.8,4.1,1.2
		c0.5-1.5,1.1-3.4-0.5-4.6C-6.5,220.4-9.6,223.8-8,225.9 M-1.4,224.2c-0.7,1.4-1,3.1-2.3,4.2c-1.4,0.4-2.9,0.2-4.4,0.3
		c-0.4,0.6-1.2,1.7-1.5,2.3c-1.3,5,0.7,11,5.8,13c4.8,2.4,10.7-0.1,13.3-4.5c1.1-2.9,1.7-6.1,0.2-9C7.8,226.1,3.1,223.8-1.4,224.2z"
		/>
	<path class="st2" d="M-8.5,235.2c3.2,2.6,6,5.7,10.3,6.5C-2.9,243.7-7.7,239.8-8.5,235.2z"/>
</g>
<g id="_x23_b8bec7ff">
	<path class="st3" d="M-8,225.9c-1.5-2.1,1.6-5.5,3.5-3.4c1.7,1.1,1,3,0.5,4.6C-5.3,226.7-7.4,227.4-8,225.9z"/>
</g>
<g id="_x23_ffffffff">
	<path class="st4" d="M-1.4,224.2c4.5-0.4,9.3,1.9,11.1,6.2c1.5,2.8,0.8,6.1-0.2,9c-2.5,1-5.1,1.8-7.7,2.3
		c-4.3-0.7-7.1-3.8-10.3-6.5c-0.4-1.4-0.8-2.9-1.1-4.3c0.4-0.6,1.1-1.7,1.5-2.3c1.5-0.1,3,0.1,4.4-0.3
		C-2.5,227.3-2.1,225.6-1.4,224.2 M0.2,226.4c-0.4,2.5,1.9,3.1,3.7,1.7C3.1,226.6,1.8,226.1,0.2,226.4z"/>
	<path class="st4" d="M110.1,247c5.6-9.8,15.8-16.9,27-18.4c14.4-2.3,29.6,4.9,37.2,17.2c5.6,8.9,7.2,20.1,4.3,30.2
		c-3.3,11.5-12.2,21.3-23.6,25.2c-5.9,2.1-12.3,2.6-18.5,1.7c-4.1-13.3-16-23.5-29.7-25.8C103.7,267.1,104.8,255.9,110.1,247
		 M166.3,266.3c-2.2,1.6-1.5,5.5,1.1,6.2c2.3,1,5.2-1,4.9-3.6C172.4,266,168.4,264.3,166.3,266.3 M115.2,268.2
		c-2.6,1.2-2.6,5.4,0.1,6.5c2.4,1.4,5.8-0.8,5.2-3.6C120.5,268.5,117.4,266.9,115.2,268.2 M130.4,280.6c-1.5,0.2-2.3,2-1.6,3.4
		c1.7,6.7,8.5,11.6,15.4,11c7.2-0.3,13.8-6.7,13.8-14c-1.1-2.2-3.8-1.4-5.8-1.5C144.8,280,137.6,279.9,130.4,280.6z"/>
	<path class="st4" d="M338.3,232.4c3.6-1.5,6.8,1.6,7.6,4.9c-3.2,2-6.9,3-10.7,2.5C334.9,237.1,335,233.4,338.3,232.4z"/>
	<path class="st4" d="M88.3,284.3c13.1-5.7,29.5-1,38,10.4c7,9.1,8.3,21.8,4.1,32.4c1.9,4.4,4.3,8.6,6.5,12.9
		c-4.6-0.5-9.2-1.4-13.8-1.7c-5.7,4-11.8,7.8-19,8.3c-15.8,2.1-31.7-9.2-35.1-24.7C65,306.9,73.8,289.9,88.3,284.3 M82.7,299.6
		c-0.5,9.3,1.3,18.6,4.5,27.3c1.2,3,3.5,6.1,6.9,6.5c5.8,0.9,12.5-1.9,15-7.4c1.3-5.8-3.1-12.2,0.2-17.6c4-3,9.2-5.8,9.9-11.4
		c-2-0.8-4.1-1.4-6.3-1.2C102.8,295.9,92.7,298,82.7,299.6z"/>
	<path class="st4" d="M12.3,305.4c3.6-1.5,6.8,1.5,7.7,4.9c-3.2,2-6.9,3-10.6,2.6C8.9,310.1,9,306.4,12.3,305.4z"/>
	<path class="st4" d="M377.8,467.5c4.3,1.5,8.6,2.7,13.1,3.7c-0.1,4.3-0.1,8.6,0,12.9c0.1,8.5,0.4,6.7,0.5,12.9c0,0.9,0,2.1,0.3,3.6
		c0.5,2.9,1.7,6,3.1,7.7c2.9,3.6,8.4,3.8,11.4,3.9c16.4,0.8,32.8,1,49.1,0.1c4.3-0.3,9.2,0.1,12.9-2.5c3.2-2.3,4.4-6.4,5-10.1
		c10.3,0,20.6,0,30.8,0c0,5.6,0.5,11.3-0.8,16.8c-2,0.3-4.1,0.6-6.1,0.7c-148.5,0-297-0.1-445.5,0.1c-2.1-5.6-1.3-11.7-1.3-17.5
		c12,0,24,0,36,0c40.2,0,80.5,0,120.7,0c1.1,2.1,2,4.8,4.5,5.5c2.5,0.5,5,0.3,7.6,0.3c40.7-0.1,81.4,0.1,122-0.1
		c3.4,0.2,5.1-3,6.2-5.7c7.3-0.1,14.6-0.1,21.9,0c3.5,0.1,6.9,0.1,10.4,0.1C379.2,489.2,378.1,478.3,377.8,467.5z"/>
	<polyline class="st4" points="379.6,500 391.4,500 391.5,500.6 	"/>
</g>
<g id="_x23_8d939cff">
	<path class="st5" d="M0.2,226.4c1.6-0.3,2.9,0.1,3.7,1.7C2.1,229.5-0.2,228.9,0.2,226.4z"/>
	<path class="st5" d="M332,240.4c1.4-3.7,2.4-8.8,7-9.6c4-0.8,6.9,2.6,9.7,4.8c-1.9,2.9-3,7.2-6.8,8.1
		C338.2,244.6,335.2,241.7,332,240.4 M338.3,232.4c-3.2,1-3.3,4.6-3,7.4c3.8,0.4,7.5-0.6,10.7-2.5
		C345.1,234,341.9,230.9,338.3,232.4 M337.7,241.5c1.7,3.3,6.3,0.8,7.6-1.7C342.8,240.3,340.3,240.9,337.7,241.5z"/>
	<path class="st5" d="M6,313.4c1.3-3.7,2.3-8.9,6.9-9.6c3.9-0.8,6.8,2.6,9.7,4.6c-1.8,3-2.9,7.4-6.8,8.3
		C12.2,317.6,9.2,314.8,6,313.4 M12.3,305.4c-3.2,1-3.3,4.6-3,7.4c3.8,0.4,7.4-0.6,10.6-2.6C19.1,307,15.8,303.9,12.3,305.4
		 M11.7,314.5c1.7,3.3,6.3,0.8,7.6-1.7C16.8,313.3,14.3,313.9,11.7,314.5z"/>
</g>
<g id="_x23_e5ebf4ff">
	<path class="st6" d="M-3.9,243.9c-5-2-7.1-8-5.8-13c0.4,1.4,0.7,2.9,1.1,4.3c0.8,4.6,5.6,8.5,10.3,6.5c2.6-0.6,5.2-1.3,7.7-2.3
		C6.8,243.8,1,246.3-3.9,243.9z"/>
</g>
<g id="_x23_c1c7d0ff">
	<path class="st7" d="M337.7,241.5c2.5-0.6,5-1.2,7.6-1.7C344.1,242.3,339.4,244.8,337.7,241.5z"/>
	<path class="st7" d="M11.7,314.5c2.5-0.6,5.1-1.3,7.6-1.7C18,315.3,13.5,317.8,11.7,314.5z"/>
</g>
<g id="_x23_9aa99bff">
	<path class="st8" d="M53.3,258.2c2.2-1.5,5.7,0,5.6,2.8c0.2,3.1-4.3,4.7-6.2,2.3C51.4,261.9,51.8,259.4,53.3,258.2 M54,258.9
		c-1.2,1.7-0.4,4.3,1.9,3.8c2.1,0.6,1.3-2.6,1.2-3.7C56.3,259,54.8,259,54,258.9z"/>
</g>
<g id="_x23_c6ccd5ff">
	<path class="st9" d="M54,258.9c0.8,0,2.4,0.1,3.2,0.1c0.1,1.1,0.9,4.3-1.2,3.7C53.5,263.2,52.8,260.6,54,258.9z"/>
</g>
<g id="_x23_4e5660ff">
	<path class="st10" d="M88.4,266.4c2.9-3.1,7.5-2.3,11.3-2.3c0,4,0.5,8,1,12c-5.2,0.9-10.5,1.5-15.4,3.7
		C85.4,275.2,84.4,269.6,88.4,266.4z"/>
	<path class="st10" d="M185,264c91.3-0.1,182.6,0,273.9,0c5.5-0.6,10.3,4.6,9.9,10c0,59.9,0,119.9,0,179.8c-4-3.1-9.3-2.9-14-3
		c2.3-15.5,4.1-31.1,6-46.7c0.4-5,1.3-10,0.7-15c-0.7-3.8-4.4-5.8-7.5-7.4c-2.2-1.7-2.2-4.6-3-7c-0.6-2.4-2.8-3.7-4.5-5.3
		c-1.9-1.5-2.8-3.8-3.8-5.9c0.7-1.7,1.4-3.3,1.6-5.1c0.4-3.1,0.7-6.2,0.7-9.4c-0.3-20.6,0.1-41.2-0.2-61.9
		c-27.9-0.4-55.9-0.1-83.9-0.2c-60.4,0-120.7,0-181.1,0C183.6,279.9,185.4,271.9,185,264z"/>
	<path class="st10" d="M85.3,349c6.8,3.2,14.4,3.5,21.7,2.5c0.5,0.2,1.4,0.6,1.9,0.8c0.8,7.8,0.1,15.8,0.3,23.6
		c0.1,35.3-0.2,70.5,0.2,105.8c4.9,0.2,9.8,0.1,14.7,0c29.3-0.1,58.7-0.1,88,0c49.4,0.3,98.7,0,148.1,0.1c0.6,3.6,0.9,7.3,2.2,10.7
		c1.3,3.2,4.3,5.1,6.9,7.2c-7.3-0.2-14.6-0.1-21.9,0c-1.1,2.7-2.8,5.9-6.2,5.7c-40.7,0.2-81.4,0-122,0.1c-2.5,0-5.1,0.2-7.6-0.3
		c-2.6-0.6-3.5-3.4-4.5-5.5c-40.2-0.1-80.5,0-120.7,0c-0.4-1.6-0.9-3.1-0.9-4.8C85.3,446.4,85.3,397.7,85.3,349z"/>
</g>
<g id="_x23_b9bfc8ff">
	<path class="st11" d="M21.7,284c0.9-0.2,1.8-0.4,2.7-0.6c0,1,0,2.1,0,3.1c-0.4-0.1-1.1-0.2-1.5-0.3C22.5,285.5,22.1,284.8,21.7,284
		z"/>
	<path class="st11" d="M22.5,396.9c1.6-0.2,3.3-0.4,4.9-0.4c0.8,1.5,0.8,3.2,1,4.9l0.1,0.9C25.1,402.5,22.5,400.2,22.5,396.9z"/>
</g>
<g id="_x23_fcde80ff">
	<path class="st12" d="M381.6,336.6c2.3-1.7,4.1-4,6.5-5.5c2.4-0.7,4.3,1.1,6.1,2.4c5.5-1.8,11.4-0.7,17-1.8
		c6.2,2.2,12.4,4.5,18.9,6.1c1.4,2.6,3.2,4.9,4.8,7.4c1.4,2.2,1.3,5,2.8,7.1c2.1,2.2,4.8,3.7,6.8,6c-0.3,1.8-1,3.5-1.6,5.1
		c1.1,2.1,2,4.4,3.8,5.9c1.6,1.6,3.9,2.9,4.5,5.3c0.8,2.4,0.8,5.4,3,7c-1.7,0-3.3,0-5,0.1c-0.6-2.9-0.3-6.9-3.4-8.5
		c-5-2.7-7.9-9.2-5.8-14.6c-2.5-2.3-6.1-4.2-6.8-7.8c-1.2-4.7-3.8-10.1-9.2-10.9c-5.1-0.8-9.6-4.2-14.9-4.2
		c-5.1-0.5-10.2,0.6-15.1,2c-1.5-0.8-2.9-1.5-4.3-2.3c-4,2.9-9.3,5-11.2,10.1c-1.8,3.9-1.6,9-5.6,11.6c-2-1.2-4.3,0.1-4.1,2.5
		c-0.8,4-2.3,7.8-2.4,11.9c-1.9,1.8-3.9,3.4-5.8,5.3c-0.2,1.6-0.3,3.2-0.3,4.8c-1.6,0.1-3.3,0.2-4.9,0.4c0.4-2.3,0-4.6,0.8-6.8
		c1.5-1.6,3.5-2.6,5.1-4c1.6-5.1,3.9-10,4.6-15.3c0.5-3,3.9-3,6.3-3C373,346.6,376.3,340.3,381.6,336.6z"/>
</g>
<g id="_x23_ffce46ff">
	<path class="st13" d="M378.5,345.6c1.8-5,7.1-7.2,11.2-10.1c1.4,0.8,2.9,1.5,4.3,2.3c4.9-1.4,10-2.5,15.1-2c5.3,0,9.7,3.3,14.9,4.2
		c5.4,0.8,8,6.2,9.2,10.9c0.7,3.7,4.3,5.5,6.8,7.8c-2.1,5.4,0.8,11.9,5.8,14.6c3.1,1.6,2.8,5.6,3.4,8.5c-4.4,1.1-7.6,4.7-9.7,8.6
		c-1.8-4.4-5.3-8.8-10.5-8.7c-6-0.3-10.3,4.9-12.3,10c-0.9-2.8-2.1-5.8-4.6-7.7c-4-3.4-10.6-3.1-14.3,0.6c-1.7,1.7-2.8,4-3.8,6.2
		c-2-4.9-6.4-9.5-12.1-9.1c-5.4,0-9.2,4.9-10.4,9.7c-1.7-5-5.8-8.9-10.9-10c0-1.6,0-3.1,0-4.6c1.8-1.9,3.8-3.5,5.8-5.3
		c0.1-4.1,1.6-7.9,2.4-11.9c1.5-0.5,2.9-1.4,4.1-2.5C376.9,354.6,376.7,349.5,378.5,345.6 M400.4,339.4c-3.2,0.3-2.5,5.7,0.7,5.2
		C404.5,344.6,403.7,338.5,400.4,339.4 M385.4,345.4c-3.6,0.6-1.8,6.4,1.5,4.8C390.1,349.4,388.3,344.5,385.4,345.4 M423.3,346.4
		c-3.5,0.4-2.9,6.1,0.7,5.3C427.2,351.4,426.5,346,423.3,346.4 M406.4,348.5c-2.9,2,0.6,6.1,3.3,4.1
		C412.3,350.5,408.9,346.1,406.4,348.5 M396.7,355.7c-1.5,0.9-0.5,2.9-0.7,4.3c1.8,0.3,4.9,0.6,4.8-2
		C401.5,355.6,398.3,354.2,396.7,355.7 M430.4,356.5c-3,1.5-0.3,6.3,2.6,4.5C436.2,359.8,433.3,354.4,430.4,356.5 M380.3,358.3
		c-1.3,2.1,1.3,4.9,3.4,3.3c1.8-1.1,0.9-3.3,0.3-4.8C382.8,357.2,380.8,356.7,380.3,358.3 M415.7,358.7c-1.7,1.5-0.1,4.7,2.2,4.1
		c2.6,0,2.3-2.9,2.1-4.8C418.5,358,416.8,357.3,415.7,358.7 M370.3,363.5c-2.8,1.6-0.2,6.2,2.6,4.4
		C376.4,366.6,373.2,361.4,370.3,363.5 M404.2,365.1c-1.4,1-2,3.1-0.6,4.3c1.6,1.9,5.1,0,4.4-2.4
		C407.8,365.2,405.7,364.7,404.2,365.1 M435.3,369.2c-3,1.6-0.5,6.5,2.6,4.9C441.2,372.7,438.4,367.7,435.3,369.2 M382.2,370.1
		c-1.5,0.7-1.9,3.3-0.5,4.3c1.3,1.2,4.1,0.5,4.2-1.4C386.6,370.9,384,368.9,382.2,370.1 M424.3,370.2c-2.2,2.2,0.6,6,3.2,4.2
		C430.7,372.6,427,367.7,424.3,370.2 M392,376.1c0.7,1.8,2,3.2,3.9,3.9c1.2-1.3,2.9-3.3,1.1-4.9C395.4,372.9,393.3,374.9,392,376.1
		 M414.4,374.4c-3.5,0.7-1.4,6.8,1.8,4.9C419.2,378.1,417.4,373.3,414.4,374.4 M367.9,377c-0.7,2.1,1.4,3.2,2.9,4
		c0.7-1.3,2.9-2.4,2.1-4C372.6,374.5,368.3,374.5,367.9,377 M439.3,378.5c-2.7,2.3,1.5,6.3,3.7,3.6
		C445.5,379.8,441.4,376.2,439.3,378.5z"/>
</g>
<g id="_x23_f18f27ff">
	<path class="st14" d="M400.4,339.4c3.3-0.9,4.2,5.2,0.7,5.2C397.8,345.1,397.1,339.8,400.4,339.4z"/>
	<path class="st14" d="M423.3,346.4c3.2-0.3,4,5,0.7,5.3C420.4,352.5,419.7,346.7,423.3,346.4z"/>
	<path class="st14" d="M380.3,358.3c0.5-1.5,2.5-1.1,3.7-1.4c0.5,1.5,1.5,3.7-0.3,4.8C381.5,363.1,379,360.4,380.3,358.3z"/>
	<path class="st14" d="M414.4,374.4c3-1,4.8,3.8,1.8,4.9C413,381.2,410.9,375.1,414.4,374.4z"/>
</g>
<g id="_x23_fbe7a8ff">
	<path class="st15" d="M385.4,345.4c2.9-0.9,4.7,4,1.5,4.8C383.6,351.8,381.8,346,385.4,345.4z"/>
	<path class="st15" d="M406.4,348.5c2.5-2.4,5.9,2.1,3.3,4.1C407,354.6,403.5,350.5,406.4,348.5z"/>
	<path class="st15" d="M430.4,356.5c2.9-2.1,5.8,3.2,2.6,4.5C430.1,362.8,427.4,358.1,430.4,356.5z"/>
	<path class="st15" d="M370.3,363.5c2.9-2.1,6.1,3.1,2.6,4.4C370.1,369.8,367.5,365.1,370.3,363.5z"/>
	<path class="st15" d="M404.2,365.1c1.5-0.4,3.6,0.1,3.8,1.9c0.7,2.4-2.8,4.3-4.4,2.4C402.3,368.2,402.9,366.1,404.2,365.1z"/>
	<path class="st15" d="M382.2,370.1c1.8-1.2,4.5,0.8,3.8,2.8c-0.1,1.9-2.9,2.6-4.2,1.4C380.2,373.4,380.6,370.8,382.2,370.1z"/>
	<path class="st15" d="M424.3,370.2c2.7-2.6,6.4,2.4,3.2,4.2C424.8,376.2,422.1,372.4,424.3,370.2z"/>
	<path class="st15" d="M439.3,378.5c2.1-2.3,6.2,1.3,3.7,3.6C440.8,384.8,436.6,380.7,439.3,378.5z"/>
</g>
<g id="_x23_f6ac38ff">
	<path class="st16" d="M396.7,355.7c1.6-1.4,4.8,0,4.1,2.3c0,2.6-3,2.3-4.8,2C396.1,358.6,395.2,356.5,396.7,355.7z"/>
	<path class="st16" d="M415.7,358.7c1.1-1.4,2.8-0.7,4.3-0.6c0.1,1.8,0.5,4.8-2.1,4.8C415.6,363.4,414,360.2,415.7,358.7z"/>
	<path class="st16" d="M435.3,369.2c3.1-1.6,5.9,3.5,2.6,4.9C434.9,375.7,432.3,370.8,435.3,369.2z"/>
	<path class="st16" d="M392,376.1c1.4-1.3,3.4-3.2,4.9-1c1.8,1.6,0.2,3.6-1.1,4.9C394,379.3,392.7,378,392,376.1z"/>
	<path class="st16" d="M367.9,377c0.4-2.5,4.7-2.5,5,0c0.8,1.6-1.4,2.7-2.1,4C369.3,380.2,367.2,379.1,367.9,377z"/>
</g>
<g id="_x23_e0bd59ff">
	<path class="st17" d="M368.9,359.7c-0.2-2.4,2.1-3.6,4.1-2.5C371.8,358.4,370.4,359.3,368.9,359.7z"/>
</g>
<g id="_x23_9a1c1fff">
	<path class="st18" d="M360.3,381.7c0.1-1.6,0.1-3.2,0.3-4.8c0,1.5,0,3.1,0,4.6c5.2,1.1,9.3,5,10.9,10c0.5,9,1.2,17.9,2.1,26.9
		c-6.5,6.7-13.4,14.7-13,24.6c-0.3,10.8,7.6,20.3,17.2,24.4c0.4,10.9,1.5,21.7,1.8,32.6c-3.5,0-7,0-10.4-0.1
		c-2.6-2.1-5.6-4.1-6.9-7.2c-1.2-3.5-1.6-7.1-2.2-10.7c-4-28.9-7.2-58-10.9-86.9c-1-5.2,1.8-10.3,6.3-12.9
		C357,381.9,358.7,381.8,360.3,381.7z"/>
	<path class="st18" d="M397.8,384.7c3.7-3.8,10.3-4.1,14.3-0.6c2.4,1.9,3.6,4.9,4.6,7.7c-0.2,4.3-0.2,8.6-0.2,12.8
		c-7.5,0-15,0.7-22.3,2.7c-0.1-5.5-0.1-10.9-0.2-16.4C395,388.7,396.1,386.5,397.8,384.7z"/>
	<path class="st18" d="M439.4,390.5c2-3.9,5.2-7.5,9.7-8.6c1.6-0.1,3.3-0.2,5-0.1c3.1,1.5,6.8,3.6,7.5,7.3c0.6,5-0.3,10-0.7,15
		c-1.9,15.6-3.8,31.1-6,46.7c-3.4,0-6.8-0.2-10.2-0.5c2.9-6,6.9-12.3,5.5-19.2c-0.8-8.1-6.2-14.7-12.3-19.7
		C438.5,404.4,439,397.5,439.4,390.5z"/>
	<path class="st18" d="M387.7,423c0.6-4.4,4.6-8.8,9.3-8.1c4.6-0.3,9.3,1.3,11.8,5.3c2.9-2.5,6.1-5.3,10.2-5
		c5.8,0.4,10.2,6.1,10,11.7c-1.6,8-11.5,11.5-12.3,19.7c-0.6,1.3-0.5,2.8-1,4.1c-2.1,0-4.3-0.2-6.3-0.7c1.5-3.7,1.3-7.8,2.5-11.5
		c2.8-4.4,7.1-7.6,10-12c2.4-2.7-1.5-7.6-4.7-5.9c-4.1,2.2-6.3,6.6-9.4,9.9c-3.3-3.1-2.9-10.4-8.6-10.4c-1.8-0.2-4.6-0.6-5.2,1.8
		c1.6,6.1,5.9,11.1,7.9,17.1c0.4,4.1-0.6,8.1-0.8,12.2c-2.1,0.9-4.1,1.9-6.2,2.7c-0.5-5.5,2-11.5-1.3-16.5
		C391.3,432.9,388,428.4,387.7,423z"/>
</g>
<g id="_x23_fbf4f6ff">
	<path class="st19" d="M371.5,391.5c1.2-4.9,5-9.7,10.4-9.7c5.7-0.4,10.1,4.2,12.1,9.1c0.1,5.4,0.1,10.9,0.2,16.4
		c-7.4,2.5-14.4,6.3-20.5,11.1C372.7,409.5,372,400.5,371.5,391.5z"/>
	<path class="st19" d="M416.6,391.8c2-5.1,6.3-10.3,12.3-10c5.2-0.1,8.7,4.3,10.5,8.7c-0.4,7-0.9,13.9-1.5,20.9
		c-6.6-3.6-13.9-5.8-21.4-6.8C416.5,400.3,416.5,396.1,416.6,391.8z"/>
	<path class="st19" d="M399,411.2c9.3-1.7,19-2.4,28.1,0.4c9.2,3,17.8,11.2,17.8,21.4c0.5,5.4-2.3,10.3-5.2,14.7
		c-0.9,1.3-2,2.9-3.7,2.6c-6.6,0.1-13.1,0.1-19.7,0.1c0.1-0.9,0.3-2.8,0.4-3.7c0.8-8.3,10.6-11.8,12.3-19.7
		c0.2-5.6-4.2-11.4-10-11.7c-4-0.3-7.3,2.5-10.2,5c-2.6-4-7.3-5.6-11.8-5.3c-4.7-0.7-8.8,3.7-9.3,8.1c0.3,5.3,3.6,9.9,5.9,14.5
		c3.3,5,0.8,11,1.3,16.5c-1.8,4.2-3.6,8.4-3.5,13c-6.8-0.5-13.9-2.7-18.5-7.9c-2.4-2.7-4.8-5.4-6.1-8.7c-2.7-8.3,0.4-17.4,6.1-23.6
		C379.6,419,389.2,414.3,399,411.2z"/>
	<path class="st19" d="M393.9,422c0.6-2.4,3.4-1.9,5.2-1.8c5.6,0,5.3,7.3,8.6,10.4c3.1-3.3,5.3-7.7,9.4-9.9c3.2-1.8,7.1,3.2,4.7,5.9
		c-2.9,4.3-7.2,7.6-10,12c-1.2,3.7-0.9,7.8-2.5,11.5c-0.1,0.2-0.2,0.6-0.3,0.8c-2.7,0.1-5.4,0.2-8,0.4c0.1-4.1,1.1-8.1,0.8-12.2
		C399.8,433.2,395.6,428.1,393.9,422z"/>
	<path class="st19" d="M421.8,466.1c8.6,4.9,17,10.1,25.4,15.3c-8.4,5.3-16.8,10.3-25.4,15.3C421.8,486.5,421.8,476.3,421.8,466.1z"
		/>
</g>
<g id="_x23_9ca9a0ff">
	<path class="st20" d="M25.2,393.3c3.7-1,7.4,3,5.9,6.6c-1,3.9-7.2,4.6-9.1,1.1C20.1,398.2,21.9,394,25.2,393.3 M22.5,396.9
		c0.1,3.3,2.6,5.7,6,5.4l-0.1-0.9c1.5-1.4,2.5-3.8,0.7-5.4C27.3,393.5,24.2,395.1,22.5,396.9z"/>
</g>
<g id="_x23_dce2ebff">
	<path class="st21" d="M22.5,396.9c1.7-1.8,4.8-3.3,6.6-0.9c1.8,1.6,0.7,4-0.7,5.4c-0.2-1.6-0.2-3.4-1-4.9
		C25.7,396.5,24.1,396.6,22.5,396.9z"/>
</g>
<g id="_x23_d42627ff">
	<path class="st22" d="M394.2,407.3c7.3-1.9,14.8-2.6,22.3-2.7c7.5,0.9,14.8,3.2,21.4,6.8c6.1,5,11.5,11.6,12.3,19.7
		c1.4,7-2.6,13.2-5.5,19.2c3.4,0.4,6.8,0.5,10.2,0.5c4.8,0.1,10-0.1,14,3c3.5,3.4,4.1,8.5,4.6,13.1c0.8,11,0.8,22-0.4,32.9
		c-0.6,3.7-1.8,7.8-5,10.1c-3.8,2.6-8.6,2.1-12.9,2.5c-16.4,0.9-32.8,0.6-49.1-0.1c-4-0.3-8.6-0.7-11.4-3.9
		c-2.6-3.2-3.3-7.4-3.4-11.3c-0.6-8.6-0.6-17.3-0.5-25.9c-4.4-0.9-8.8-2.2-13.1-3.7c-9.6-4.2-17.5-13.6-17.2-24.4
		c-0.4-9.9,6.6-17.9,13-24.6C379.8,413.6,386.8,409.8,394.2,407.3 M399,411.2c-9.8,3.1-19.3,7.8-26.2,15.7
		c-5.7,6.2-8.8,15.4-6.1,23.6c1.3,3.3,3.8,6.1,6.1,8.7c4.6,5.2,11.7,7.4,18.5,7.9c-0.1-4.7,1.8-8.9,3.5-13c2.1-0.9,4.2-1.8,6.2-2.7
		c2.7-0.2,5.4-0.3,8-0.4c0.1-0.2,0.2-0.6,0.3-0.8c2.1,0.5,4.2,0.7,6.3,0.7c0.5-1.3,0.4-2.8,1-4.1c-0.1,0.9-0.3,2.8-0.4,3.7
		c6.6,0,13.2,0,19.7-0.1c1.8,0.2,2.8-1.4,3.7-2.6c2.9-4.4,5.7-9.3,5.2-14.7c0-10.2-8.6-18.5-17.8-21.4
		C418,408.8,408.2,409.5,399,411.2 M421.8,466.1c0,10.2,0,20.4,0,30.6c8.5-5,17-10,25.4-15.3C438.8,476.1,430.4,471,421.8,466.1z"/>
</g>
<g id="_x23_ccd1d9ff">
	<path class="st23" d="M497,517.3c2-0.1,4.1-0.4,6.1-0.7c-3.2,7.5-10.7,13.4-19.1,13.3c-138,0-276.1,0-414.1,0
		c-8,0-15.3-5.3-18.4-12.5C200,517.2,348.5,517.3,497,517.3z"/>
</g>
<path class="st10" d="M110.4,481.1"/>
<path class="st4" d="M379.6,500"/>
<path class="st4" d="M379.6,500"/>
<path class="st24" d="M391.4,500.2"/>
<path class="st24" d="M379.6,500"/>
</svg>
