<?xml version="1.0" encoding="UTF-8" standalone="no"?>
<!-- Created with Inkscape (http://www.inkscape.org/) -->

<svg
   xmlns:dc="http://purl.org/dc/elements/1.1/"
   xmlns:cc="http://creativecommons.org/ns#"
   xmlns:rdf="http://www.w3.org/1999/02/22-rdf-syntax-ns#"
   xmlns:svg="http://www.w3.org/2000/svg"
   xmlns="http://www.w3.org/2000/svg"
   xmlns:sodipodi="http://sodipodi.sourceforge.net/DTD/sodipodi-0.dtd"
   xmlns:inkscape="http://www.inkscape.org/namespaces/inkscape"
   width="223.18471mm"
   height="310.42148mm"
   viewBox="0 0 790.81195 1099.9187"
   id="svg3477"
   version="1.1"
   inkscape:version="0.91 r13725"
   sodipodi:docname="anim-news.svg">
  <defs
     id="defs3479" />
  <sodipodi:namedview
     id="base"
     pagecolor="#ffffff"
     bordercolor="#666666"
     borderopacity="1.0"
     inkscape:pageopacity="0.0"
     inkscape:pageshadow="2"
     inkscape:zoom="0.49497475"
     inkscape:cx="-210.44403"
     inkscape:cy="1014.6778"
     inkscape:document-units="px"
     inkscape:current-layer="layer1"
     showgrid="false"
     inkscape:window-width="1600"
     inkscape:window-height="841"
     inkscape:window-x="0"
     inkscape:window-y="31"
     inkscape:window-maximized="1"
     fit-margin-top="0"
     fit-margin-left="0"
     fit-margin-right="0"
     fit-margin-bottom="0" />
  <metadata
     id="metadata3482">
    <rdf:RDF>
      <cc:Work
         rdf:about="">
        <dc:format>image/svg+xml</dc:format>
        <dc:type
           rdf:resource="http://purl.org/dc/dcmitype/StillImage" />
        <dc:title></dc:title>
      </cc:Work>
    </rdf:RDF>
  </metadata>
  <g
     inkscape:label="Calque 1"
     inkscape:groupmode="layer"
     id="layer1"
     transform="translate(21.649558,23.886641)">
    <rect
       style="opacity:1;fill:#ffffff;stroke:#ffffff;stroke-width:32.00000286;stroke-linecap:round;stroke-linejoin:bevel;stroke-miterlimit:4;stroke-dasharray:none;stroke-opacity:1"
       id="rect3586"
       width="747.51288"
       height="1056.6195"
       x="0"
       y="-2.237052" />
    <g
       transform="matrix(3.5101908,0,0,3.5101908,-51.498551,-12.381365)"
       id="_x23_48525fff">
      <path
         style="fill:#48525f"
         inkscape:connector-curvature="0"
         d="m 96.42,80.52 c 13.89,-0.32 27.81,-0.07 41.7,-0.12 4.479,-0.2 5.28,7.03 0.87,7.86 -13.98,0.271 -27.99,0.2 -41.97,0.04 -4.24,-0.22 -4.67,-6.9 -0.6,-7.78 z"
         id="path10" />
      <path
         style="fill:#48525f"
         inkscape:connector-curvature="0"
         d="m 27.34,157.439 c 15.17,-0.629 30.43,-0.049 45.64,-0.279 2.28,0.05 5.46,-0.4 6.61,2.14 1.63,2.96 -1.47,6.45 -4.6,5.92 -15.32,-0.06 -30.66,0.03 -45.98,-0.04 -4.42,0.49 -5.83,-6.39 -1.67,-7.741 z"
         id="path12" />
      <path
         style="fill:#48525f"
         inkscape:connector-curvature="0"
         d="m 95.34,236.25 c 1.37,-0.9 3.12,-0.59 4.66,-0.71 35,0.101 69.99,0 104.98,0.05 3.459,-0.359 5.379,4.1 3.26,6.59 -1.211,1.641 -3.42,1.381 -5.211,1.44 -35.299,-0.09 -70.599,0.09 -105.899,-0.09 -3.64,0.02 -4.84,-5.49 -1.79,-7.28 z"
         id="path14" />
    </g>
    <g
       transform="matrix(3.5101908,0,0,3.5101908,-51.498551,-12.381365)"
       id="_x23_0fb7b8ff">
      <path
         style="fill:#0fb7b8"
         inkscape:connector-curvature="0"
         d="m 27.42,80.58 c 16.21,-0.45 32.47,-0.1 48.7,-0.17 2.48,-0.31 4.17,2.26 3.87,4.52 0.01,18.05 0.04,36.11 -0.02,54.16 0.25,2.24 -1.73,4.28 -3.98,4.11 -15.67,-0.04 -31.34,0.07 -47.01,-0.04 -2.36,0.28 -4.44,-1.78 -4.16,-4.14 -0.07,-18.04 -0.05,-36.08 -0.01,-54.11 -0.18,-1.81 0.7,-3.88 2.61,-4.33 z"
         id="path17" />
    </g>
    <g
       transform="matrix(3.5101908,0,0,3.5101908,-51.498551,-12.381365)"
       id="_x23_939ba3ff">
      <path
         style="fill:#939ba3"
         inkscape:connector-curvature="0"
         d="m 94.87,99.88 c 1.03,-1.25 2.76,-0.9 4.18,-1 13.36,0.21 26.72,0.05 40.07,0.08 2.64,0.44 3.79,4.25 2.06,6.27 -1.4,2.01 -4.1,1.47 -6.19,1.63 -12.36,-0.14 -24.71,0.06 -37.07,-0.09 -1.62,0.14 -2.85,-1 -4.15,-1.76 0.32,-1.69 -0.37,-3.86 1.1,-5.13 z"
         id="path23" />
      <path
         style="fill:#939ba3"
         inkscape:connector-curvature="0"
         d="m 93.82,123.03 c 0.06,-2.25 -0.14,-6 3.04,-5.98 14.37,-0.14 28.75,0.03 43.12,-0.08 1.6,1.41 2.69,3.66 1.62,5.74 -0.94,2.19 -3.61,2.13 -5.61,2.15 -12.7,-0.14 -25.41,0.06 -38.11,-0.1 -1.6,0.17 -2.85,-0.87 -4.06,-1.73 z"
         id="path25" />
      <path
         style="fill:#939ba3"
         inkscape:connector-curvature="0"
         d="m 96.38,135.39 c 13.87,-0.49 27.8,-0.17 41.69,-0.14 4.62,-0.63 5.42,7.21 0.98,7.7 -14.05,0.18 -28.13,0.07 -42.19,0.03 -3.96,0.13 -4.05,-6.87 -0.48,-7.59 z"
         id="path27" />
      <path
         style="fill:#939ba3"
         inkscape:connector-curvature="0"
         d="m 27.35,175.45 c 15.87,-0.65 31.82,-0.13 47.73,-0.261 2.37,-0.299 4.84,1.221 5.15,3.701 -0.15,2.129 -1.8,4.469 -4.16,4.209 -16.02,-0.24 -32.05,0.131 -48.06,-0.16 -3.83,-0.189 -4.18,-6.419 -0.66,-7.489 z"
         id="path29" />
      <path
         style="fill:#939ba3"
         inkscape:connector-curvature="0"
         d="m 28.09,201.47 c -4.02,-0.149 -4.42,-7.59 -0.16,-7.439 16.73,-0.15 33.47,-0.021 50.21,-0.07 3.3,2.19 1.98,7.62 -2.06,7.649 -16,-0.1 -32.01,0.22 -47.99,-0.14 z"
         id="path31" />
      <path
         style="fill:#939ba3"
         inkscape:connector-curvature="0"
         d="m 27.17,212.25 c 5.88,-0.68 11.92,0.02 17.86,-0.33 10.67,0.28 21.36,-0.279 32.02,0.23 4.44,0.92 3.62,8 -0.93,7.81 -15.72,0.07 -31.45,0.07 -47.17,0 -4.25,0.46 -5.78,-6.28 -1.78,-7.71 z"
         id="path33" />
      <path
         style="fill:#939ba3"
         inkscape:connector-curvature="0"
         d="m 96.17,254.25 c 8.25,-0.811 16.57,0.061 24.84,-0.3 28.33,0.05 56.67,-0.021 84.99,0.04 3.63,0.689 4.25,6.34 0.79,7.68 -2.53,0.6 -5.19,0.25 -7.78,0.391 -34.02,-0.091 -68.05,0.049 -102.08,-0.07 -3.78,-0.261 -4.21,-6.641 -0.76,-7.741 z"
         id="path35" />
      <path
         style="fill:#939ba3"
         inkscape:connector-curvature="0"
         d="m 96.09,272.29 c 2.25,-0.49 4.57,-0.271 6.86,-0.3 34.04,0.04 68.09,-0.021 102.14,0.02 4.24,-0.56 5.59,6.33 1.76,7.7 -5.22,0.67 -10.52,0.28 -15.77,0.3 -31.391,0.07 -62.79,-0.029 -94.19,0.04 -3.65,-0.59 -4.19,-6.5 -0.8,-7.76 z"
         id="path37" />
    </g>
    <g
       transform="matrix(3.3768725,0,0,3.3768725,-22.585545,10.802737)"
       id="_x23_646565ff">
      <path
         style="fill:#646565"
         inkscape:connector-curvature="0"
         d="m 87.788,160.529 c -0.265,-3.873 3.224,-7.261 7.073,-6.942 38.126,0.067 76.252,0.021 114.379,0.021 2.122,0.034 5.478,0.913 5.521,3.51 0.021,21.253 0.021,42.504 -0.011,63.756 -1.585,1.122 -3.234,2.454 -5.313,2.267 -38.192,0.055 -76.385,0.011 -114.565,0.011 -3.718,0.429 -7.227,-2.816 -7.018,-6.556 -0.132,-18.69 0.022,-37.379 -0.066,-56.067"
         id="path46" />
    </g>
    <g
       transform="matrix(3.5101908,0,0,3.5101908,-51.498551,-12.381365)"
       id="_x23_34c2f1ff">
      <path
         style="fill:#34c2f1"
         inkscape:connector-curvature="0"
         d="m 157.78,163.015 c 14.575,-0.331 29.185,-0.056 43.781,-0.121 2.32,-0.363 4.442,1.749 4.168,4.07 0.045,13.595 -0.076,27.203 0.056,40.799 -0.12,1.551 0.197,3.245 -0.473,4.708 -1.034,1.65 -3.18,1.375 -4.83,1.474 -13.893,-0.11 -27.785,0.033 -41.678,-0.065 -2.025,0.088 -3.84,-1.805 -3.619,-3.839 -0.057,-14.345 -0.033,-28.688 -0.011,-43.021 -0.187,-1.762 0.881,-3.522 2.606,-4.005"
         id="path49" />
    </g>
    <g
       transform="matrix(3.5101908,0,0,3.5101908,-51.498551,-12.381365)"
       id="_x23_f2f2f2ff">
      <path
         style="fill:#f2f2f2"
         inkscape:connector-curvature="0"
         d="m 102.217,171.123 c 13.518,-0.305 27.074,-0.105 40.604,-0.105 5.517,0.052 6.23,11.22 -0.08,10.441 -13.213,0.092 -26.438,0.104 -39.652,-0.014 -5.267,-0.105 -5.77,-9.095 -0.872,-10.322 z"
         id="path52" />
      <path
         style="fill:#f2f2f2"
         inkscape:connector-curvature="0"
         d="m 100.938,196.004 c 1.808,-1.188 4.119,-0.594 6.15,-0.791 11.894,0.157 23.787,-0.066 35.681,0.105 5.253,-0.105 6.271,9.926 0.792,10.322 -13.412,0.382 -26.849,0.078 -40.273,0.133 -4.846,0.039 -5.954,-7.352 -2.35,-9.769 z"
         id="path54" />
    </g>
    <g
       transform="matrix(3.5101908,0,0,3.5101908,-53.521582,-14.404395)"
       id="_x23_fff1e5ff">
      <path
         style="fill:#fff1e5"
         inkscape:connector-curvature="0"
         d="m 172.334,184.662 c -0.539,-4.95 3.355,-10.021 8.426,-10.329 5.138,-0.45 9.856,4.114 10.01,9.196 0.109,4.454 -2.189,8.547 -4.84,11.979 2.674,2.707 7.04,2.277 9.702,5.038 2.079,1.717 2.53,4.478 2.673,7.008 -11.121,0.473 -22.253,0.043 -33.385,0.188 -0.308,-2.783 0.484,-5.743 2.816,-7.459 2.629,-2.628 6.875,-2.145 9.449,-4.84 -2.871,-2.883 -4.224,-6.853 -4.851,-10.781 z"
         id="path57" />
    </g>
    <g
       transform="matrix(3.5101908,0,0,3.5101908,-51.498551,-12.381365)"
       id="_x23_eb108aff">
      <path
         style="fill:#eb108a"
         inkscape:connector-curvature="0"
         d="m 27.26,235.35 c 16.24,-0.39 32.51,-0.06 48.76,-0.17 2.23,-0.33 4.66,1.4 4.38,3.82 0.02,13 -0.01,26.02 0.01,39.02 0.15,1.98 -1.11,4.44 -3.36,4.351 -16.03,0.05 -32.07,0.06 -48.1,0.01 -2.5,0.38 -4.57,-1.94 -4.16,-4.38 0,-13.01 -0.05,-26.02 0.03,-39.03 -0.13,-1.601 0.91,-3.171 2.44,-3.621 z"
         id="path60" />
    </g>
    <g
       transform="matrix(3.4702313,0,0,3.4702313,-31.517565,-16.974094)"
       id="Calque_2">
      <path
         style="fill:#48525f"
         inkscape:connector-curvature="0"
         d="m 192.1,17.115 c 7.314,-3.575 16.006,-1.617 22.748,2.354 -1.311,3.189 -2.85,6.291 -4.346,9.404 -3.201,-1.947 -6.578,-4.543 -10.559,-3.828 -2.938,0.583 -5.611,5.038 -2.783,7.293 4.268,2.938 9.789,3.025 14.199,5.556 8.559,6.061 7.02,20.13 -1.318,25.63 -3.949,1.87 -8.359,3.267 -12.783,2.783 -5.885,-0.474 -11.186,-3.51 -15.84,-6.952 2.453,-3.246 4.928,-6.458 7.447,-9.647 3.301,3.025 6.908,6.963 11.836,6.49 4.379,-0.011 6.258,-6.787 2.486,-8.987 -5.07,-3.354 -11.979,-3.212 -16.258,-7.964 -5.445,-6.975 -2.695,-18.205 5.171,-22.132 z"
         id="path63" />
      <path
         style="fill:#48525f"
         inkscape:connector-curvature="0"
         d="m 16.902,16.598 c 4.114,0 8.229,0 12.343,-0.021 5.852,8.063 11.825,16.027 17.709,24.057 2.168,2.894 3.652,6.204 5.192,9.449 -0.847,-11.176 -0.352,-22.374 -0.55,-33.572 4.268,0.056 8.536,0.088 12.805,0.1 0.055,16.125 0.032,32.252 0,48.389 C 60.088,64.989 55.765,65.056 51.454,64.923 45.404,56.277 38.935,47.94 32.798,39.36 c -1.463,-2.3 -2.519,-4.818 -3.763,-7.238 1.002,10.945 0.484,21.923 0.66,32.89 -4.257,0 -8.514,-0.021 -12.782,-0.011 C 16.847,48.861 16.88,32.734 16.902,16.598 Z"
         id="path65" />
      <path
         style="fill:#48525f"
         inkscape:connector-curvature="0"
         d="m 73.707,65.493 c -0.177,-16.324 0.021,-32.659 -0.1,-48.983 12.188,0.198 24.376,-0.032 36.575,0.1 -0.011,3.531 0,7.051 0.021,10.593 -7.776,-0.044 -15.542,-0.11 -23.319,0.011 -0.021,2.771 -0.033,5.533 -0.033,8.295 5.291,0.044 10.571,-0.012 15.852,-0.078 0.011,3.554 0,7.106 -0.022,10.659 -5.269,-0.044 -10.526,0.012 -15.796,0.022 0,2.761 -0.011,5.533 -0.021,8.305 7.766,0.033 15.542,-0.044 23.309,0.011 0.011,3.663 0.011,7.326 0.011,10.989 -12.168,0.087 -24.323,-0.056 -36.477,0.076 z"
         id="path67" />
      <path
         style="fill:#48525f"
         inkscape:connector-curvature="0"
         d="m 113.703,16.609 c 4.399,-0.1 8.8,-0.066 13.199,0 2.497,10.119 5.017,20.239 7.393,30.382 2.464,-10.197 5.488,-20.251 7.953,-30.448 3.409,0.088 6.831,-0.076 10.241,0.11 0.945,0.913 0.99,2.409 1.463,3.586 2.408,8.756 5.17,17.413 7.293,26.245 2.299,-10.009 5.037,-19.909 7.447,-29.887 4.4,-0.011 8.801,-0.011 13.199,0 -4.531,16.126 -9.074,32.253 -13.617,48.379 -4.258,0.032 -8.504,0.043 -12.75,0.032 -2.76,-9.03 -5.455,-18.073 -7.996,-27.158 -2.42,9.097 -5.203,18.084 -7.799,27.137 -4.136,0.044 -8.283,0.021 -12.419,-0.011 -4.533,-16.125 -9.098,-32.242 -13.607,-48.367 z"
         id="path69" />
    </g>
    <path
       inkscape:connector-curvature="0"
       style="fill:#7e4294"
       d="m 492.9378,269.7535 c 58.79553,-1.26124 117.70233,-0.29674 176.53494,-0.51933 8.45393,-1.14994 17.39381,4.97072 16.919,14.059 0.63062,22.0715 0,44.14299 0.0742,66.2145 1.07574,9.34794 -7.64528,17.36043 -16.88194,16.1363 -56.90366,0.14839 -113.80733,0.25969 -170.74437,-0.037 -7.19272,0.66769 -15.53909,-4.63687 -15.50569,-12.38973 -0.44515,-22.29406 0.14467,-44.62523 -0.25967,-66.9564 -0.85691,-6.78839 2.63004,-15.02345 9.86354,-16.50725 z"
       id="path20" />
    <g
       transform="matrix(3.534065,0,0,3.534065,-63.832419,-14.876184)"
       id="_x23_fbb116ff">
      <path
         style="fill:#fbb116"
         inkscape:connector-curvature="0"
         d="m 157.50187,119.22862 c 15.93354,-0.53532 31.93005,-0.0315 47.89508,-0.25192 2.07828,0.13646 5.09075,-0.44084 6.20337,1.86836 0.22042,7.37897 0.064,14.77893 0.0735,22.1684 0.47129,2.3407 -2.17275,3.40083 -4.08415,3.27488 -15.77504,0.084 -31.55322,0 -47.32826,0.0315 -2.24728,0.17843 -5.20622,-0.53532 -5.35317,-3.26438 -0.2939,-5.98295 -0.0105,-11.9764 -0.16794,-17.95934 -0.13645,-2.21474 0.16899,-5.21672 2.7616,-5.86749 z"
         id="path43" />
    </g>
  </g>
</svg>
