<svg xmlns="http://www.w3.org/2000/svg" id="logo" viewBox="0 0 225 271"><path d="M171.956 4.358c-4.106-.01-8.216.072-12.326.222-3.82 2.76-8.57 3.34-12.82 5.1-3.01 2.19-6.33 3.87-9.62 5.57-4.36 3.59-8.82 7.1-12.71 11.21-3.12 3.1-3.93 7.87-7.43 10.64-2.47 2.32-6.07 1.38-9.11 1.27-2.17-3.57-3.59-7.73-6.89-10.47-3.94-3.42-7.66-7.45-12.71-9.22-5.87-2.08-11.98-4.06-18.3-3.72-4.63-.06-9.21 1.44-13.84.7-5.7-.84-11.49-.57-17.24-.55-4.31-.12-8.02 2.35-11.66 4.32-8.75 5.15-14.56 13.81-19.35 22.51-1.97 4.53-1.55 9.68-3.22 14.32-.04 1.18-.06 2.35-.08 3.53 2.29 6.27 1.31 13.64 5.42 19.2 4.4 6.7 7.5 14.21 12.52 20.5 6.24 9.78 12.62 19.48 18.61 29.43 1.99 2.95 4.46 5.54 6.34 8.57 2.39 3.42 4.14 7.29 6.97 10.39 1.75 3.13 4.16 6.24 4.04 10.02.03 15.72-.03 31.44.01 47.16-.14 4.86 2.52 9.15 3.23 13.87.59 4.14 3.05 7.61 5.29 11.01 4.06 5.15 10.03 8.75 12.97 14.77 1.99 4.44 4.89 8.41 8.23 11.92 3.79 3.65 8.38 6.28 12.46 9.57 9.08.76 18.19.52 27.29.57 5.07.12 10.26-1.24 14.33-4.33 4.36-3.02 8.8-6.29 11.7-10.8 1.38-3.91 4.17-7.06 5.82-10.8 1.36-13.64-2-28.07 3.65-41.07 1.39-6.16 1.84-12.52 2.05-18.82 1.75-10.6.57-21.37.98-32.06 1.78-3.51 3.73-6.96 6.51-9.8 6.72-7.4 11.76-16.05 17.48-24.18 3.42-6.47 8.41-11.89 12.31-18.04 3.89-6.26 8.49-12.06 12.3-18.37 1.99-5.06 5.37-9.81 5.46-15.42.1-4.69.07-9.39-.19-14.08.11-3.91-3.04-6.69-4.2-10.21-1.89-6.64-7.09-11.49-11.23-16.78-3.81-4.93-8.88-8.6-13.89-12.2-2.51-1.44-5.44-1.86-8.05-3.04-2.31-.87-4.43-2.48-7-2.37-1.368-.025-2.735-.04-4.104-.042zm-2.11 17.526c.374.007.748.026 1.124.057 7.72 1.23 13.44 7.32 17.65 13.48 3.02 4.58 7.71 8.71 7.63 14.63.38 4.94-3.28 8.68-5.56 12.66-3.84 6.7-8.91 12.59-12.75 19.29-4.21 6.13-8.17 12.42-12.44 18.51-6.23 7.52-10.94 16.19-17.48 23.47-2.4 2.64-4.25 5.7-5.91 8.84.59 10.71.18 21.44.28 32.16-.32 6.84-.51 13.82-2.7 20.38-1.62 5.54-1.71 11.37-2.62 17.05-1.31 6.45 1.47 12.9.47 19.37-1.34 4.4-4.22 8.08-7.27 11.45-.54.18-1.62.54-2.16.73-2.12 4.7-7.74 4.57-12.13 4.33-4.07-1.75-7.96-4.04-11.4-6.83-5-3.33-3.49-10.5-7.36-14.66-3.44-3.64-8.81-5.12-11.5-9.53-1.7-2.4-2.61-5.29-2.49-8.23-.05-15.01.21-30.01-.07-45.02.05-4.57.74-9.27-.6-13.73-1.42-3.68-3.95-6.81-6.81-9.5-.15-.46-.46-1.38-.62-1.84-5.65-9.01-11.31-18.01-17.09-26.94-4.5-5.07-7.31-11.28-11.36-16.68C41.36 76.94 35.53 68.84 30.97 60c-2.1-3.91-3.01-8.67-1.61-12.95 1.57-3.47 3.7-6.67 6.12-9.61 2.1-2.55 5.33-3.65 8.05-5.37 4.29.23 9.5-.59 12.2 3.6 3.83-.35 7.62-1.11 11.08-2.84 5.35-2.16 10.58 1.6 14.81 4.5 8.52 8.08 12.87 19.29 19.1 29.03 3.3 5.08 5.94 10.55 8.3 16.12 1.27-.02 2.53-.04 3.8-.07 5.16-13.41 16.36-23.11 22.93-35.73 4.38-7.87 9.99-15.93 18.68-19.4 4.612-3 9.823-5.5 15.417-5.396z" fill="#373435"/></svg>
