<?xml version="1.0" encoding="utf-8"?>
<!-- Generator: Adobe Illustrator 19.0.0, SVG Export Plug-In . SVG Version: 6.00 Build 0)  -->
<svg version="1.1"
	 id="svg3519" xmlns:svg="http://www.w3.org/2000/svg" xmlns:rdf="http://www.w3.org/1999/02/22-rdf-syntax-ns#" xmlns:cc="http://creativecommons.org/ns#" xmlns:dc="http://purl.org/dc/elements/1.1/"
	 xmlns="http://www.w3.org/2000/svg" xmlns:xlink="http://www.w3.org/1999/xlink" x="0px" y="0px" viewBox="272 -115.2 1157 1023.2"
	 style="enable-background:new 272 -115.2 1157 1023.2;" xml:space="preserve">
<style type="text/css">
	.st0{fill:#578C2C;}
</style>
<g id="layer1" transform="translate(175.63367,24.968363)">
	<path id="path8" class="st0" d="M1046,283.6c12.9-29.7,20.1-62.5,20.1-96.9c0-134-108.6-242.7-242.6-242.7
		c-134,0-242.6,108.6-242.6,242.7c0,15.6,1.5,30.8,4.3,45.6c-4.3-0.2-8.6-0.3-12.9-0.3c-178.8,0-323.7,145-323.7,323.8
		c0,178.8,144.9,323.8,323.7,323.8c83,0,158.7-31.2,215.9-82.6c44.5,28,97.2,44.3,153.6,44.3c159.3,0,288.5-129.2,288.5-288.5
		C1230.3,430.1,1153.9,325.3,1046,283.6 M327.8,200.6c93.1,0,168.6-75.5,168.6-168.6S421-136.7,327.8-136.7
		c-93.1,0-168.6,75.5-168.6,168.6S234.7,200.6,327.8,200.6 M1207.8,200.9c-23.2,0-42,18.8-42,42.1s18.8,42.1,42,42.1
		c23.2,0,42-18.8,42-42.1C1249.8,219.8,1231,200.9,1207.8,200.9"/>
</g>
<path id="bubule" class="st0" d="M379.8,239.4c-32.7,0-59.3,26.5-59.3,59.3c0,32.8,26.5,59.3,59.3,59.3s59.3-26.6,59.3-59.3
	S412.6,239.4,379.8,239.4"/>
</svg>
