<?xml version="1.0" encoding="UTF-8" standalone="no"?>
<svg
   xmlns:dc="http://purl.org/dc/elements/1.1/"
   xmlns:cc="http://creativecommons.org/ns#"
   xmlns:rdf="http://www.w3.org/1999/02/22-rdf-syntax-ns#"
   xmlns:svg="http://www.w3.org/2000/svg"
   xmlns="http://www.w3.org/2000/svg"
   id="svg2"
   version="1.1"
   viewBox="0 0 416 240"
   height="240pt"
   width="416pt">
  <metadata
     id="metadata28">
    <rdf:RDF>
      <cc:Work
         rdf:about="">
        <dc:format>image/svg+xml</dc:format>
        <dc:type
           rdf:resource="http://purl.org/dc/dcmitype/StillImage" />
        <dc:title></dc:title>
      </cc:Work>
    </rdf:RDF>
  </metadata>
  <defs
     id="defs26" />
  <path
     id="path6"
     d=" M 50.84 0.00 L 363.66 0.00 C 369.11 0.43 373.52 5.44 372.98 10.94 C 372.98 79.96 372.94 148.98 373.00 218.00 C 327.77 218.00 282.54 218.00 237.32 218.00 C 217.78 218.00 198.24 218.00 178.70 218.00 C 133.13 218.00 87.57 218.00 42.00 218.00 C 42.00 151.65 42.00 85.31 42.00 18.96 C 42.06 15.00 41.65 10.97 42.45 7.07 C 43.51 3.25 47.06 0.70 50.84 0.00 Z"
     fill="#373435" />
  <path
     id="path12"
     d=" M 54.05 14.07 C 111.72 13.89 169.39 14.05 227.07 14.00 C 272.11 13.49 317.17 13.71 362.21 13.80 C 362.38 63.19 362.25 112.58 362.28 161.98 C 362.48 176.97 361.93 191.96 361.95 206.95 C 259.32 207.03 156.68 207.04 54.06 206.95 C 53.97 142.66 53.97 78.36 54.05 14.07 Z"
     fill="#4b4b4d" />
  <path
     id="path14"
     d=" M 0.00 217.90 C 14.00 218.13 28.00 217.94 42.00 218.00 C 87.57 218.00 133.13 218.00 178.70 218.00 C 178.95 219.56 179.11 221.15 179.54 222.68 C 180.44 224.20 182.50 223.82 183.98 224.02 C 199.99 223.99 216.00 223.99 232.01 224.02 C 233.48 223.81 235.56 224.22 236.43 222.68 C 236.88 221.15 237.05 219.56 237.32 218.00 C 282.54 218.00 327.77 218.00 373.00 218.00 C 387.33 218.01 401.67 218.00 416.00 218.00 L 416.00 236.24 C 411.34 236.00 406.68 235.89 402.02 236.00 C 287.34 235.99 172.66 236.00 57.98 236.00 C 38.65 235.91 19.32 236.19 0.00 235.85 L 0.00 217.90 Z"
     fill="#e6e7e8" />
  <path
     id="path16"
     d=" M 178.70 218.00 C 198.24 218.00 217.78 218.00 237.32 218.00 C 237.05 219.56 236.88 221.15 236.43 222.68 C 235.56 224.22 233.48 223.81 232.01 224.02 C 216.00 223.99 199.99 223.99 183.98 224.02 C 182.50 223.82 180.44 224.20 179.54 222.68 C 179.11 221.15 178.95 219.56 178.70 218.00 Z"
     fill="#a9abae" />
  <path
     id="path18"
     d=" M 0.00 235.85 C 19.32 236.19 38.65 235.91 57.98 236.00 C 172.66 236.00 287.34 235.99 402.02 236.00 C 406.68 235.89 411.34 236.00 416.00 236.24 L 416.00 237.01 C 414.60 237.60 413.45 238.63 412.78 240.00 L 2.81 240.00 C 2.65 238.42 1.25 237.51 0.00 236.80 L 0.00 235.85 Z"
     fill="#a9abae" />
</svg>
