<?xml version="1.0" encoding="utf-8"?>
<!-- Generator: Adobe Illustrator 19.0.0, SVG Export Plug-In . SVG Version: 6.00 Build 0)  -->
<svg version="1.1" id="Layer_1" xmlns="http://www.w3.org/2000/svg" xmlns:xlink="http://www.w3.org/1999/xlink" x="0px" y="0px"
	 viewBox="-166 315.4 278.5 162.6" style="enable-background:new -166 315.4 278.5 162.6;" xml:space="preserve">
<style type="text/css">
	.st0{fill:#4E5660;}
	.st1{fill:#434A54;}
	.st2{fill:#FFFFFF;}
	.st3{fill:#CCD1D9;}
</style>
<path class="st0" d="M84.8,315.4h-223.2c-3.2,0-5.8,2.6-5.8,5.9v136c0,3.2,2.6,5.8,5.8,5.8H84.8c3.2,0,5.9-2.6,5.9-5.8v-136
	C90.7,318,88.1,315.4,84.8,315.4z"/>
<rect x="-129.7" y="329.4" class="st1" width="205.8" height="119.2"/>
<path class="st2" d="M112.3,459.7H16.1c-0.2,2-1.8,3.5-3.8,3.5h-78c-2,0-3.6-1.6-3.8-3.5h-96.3c-0.1,0.5-0.1,0.9-0.1,1.4v4.2
	c0,7,5.7,12.7,12.7,12.7H99.8c7,0,12.7-5.7,12.7-12.7v-4.2C112.5,460.6,112.4,460.2,112.3,459.7z"/>
<path class="st3" d="M-165,470.3c1.9,4.5,6.4,7.7,11.7,7.7H99.8c5.2,0,9.7-3.2,11.6-7.7H-165z"/>
</svg>
