<?xml version="1.0" encoding="UTF-8" standalone="no"?>
<svg
   xmlns:dc="http://purl.org/dc/elements/1.1/"
   xmlns:cc="http://creativecommons.org/ns#"
   xmlns:rdf="http://www.w3.org/1999/02/22-rdf-syntax-ns#"
   xmlns:svg="http://www.w3.org/2000/svg"
   xmlns="http://www.w3.org/2000/svg"
   xmlns:sodipodi="http://sodipodi.sourceforge.net/DTD/sodipodi-0.dtd"
   xmlns:inkscape="http://www.inkscape.org/namespaces/inkscape"
   width="302pt"
   height="426pt"
   viewBox="0 0 302 426"
   version="1.1"
   id="svg2"
   inkscape:version="0.91 r13725"
   sodipodi:docname="ybtv.svg">
  <metadata
     id="metadata70">
    <rdf:RDF>
      <cc:Work
         rdf:about="">
        <dc:format>image/svg+xml</dc:format>
        <dc:type
           rdf:resource="http://purl.org/dc/dcmitype/StillImage" />
      </cc:Work>
    </rdf:RDF>
  </metadata>
  <defs
     id="defs68" />
  <sodipodi:namedview
     pagecolor="#ffffff"
     bordercolor="#666666"
     borderopacity="1"
     objecttolerance="10"
     gridtolerance="10"
     guidetolerance="10"
     inkscape:pageopacity="0"
     inkscape:pageshadow="2"
     inkscape:window-width="1600"
     inkscape:window-height="841"
     id="namedview66"
     showgrid="false"
     inkscape:zoom="3.5455399"
     inkscape:cx="138.54608"
     inkscape:cy="438.74746"
     inkscape:window-x="0"
     inkscape:window-y="31"
     inkscape:window-maximized="1"
     inkscape:current-layer="svg2" />
  <path
     d="m 94.918892,8.27 c 2.367868,-4.21 7.992788,-4.96 12.159048,-3.28 2.84744,1.15 4.72573,3.71 6.73393,5.91 2.31793,-1.21 4.40604,-3.07 7.0337,-3.55 2.37784,0.07 4.69577,0.84 7.09361,0.77 2.9973,-0.31 5.9346,-1.23 8.9719,-1.15 2.9973,0.02 5.9746,0.7 8.9719,0.53 2.68757,-0.75 5.1654,-2.61 8.08271,-2.24 3.07729,0.27 5.08545,2.94 7.68311,4.3 2.4778,0.69 5.14537,0.42 7.60314,1.24 2.19803,0.97 3.97646,2.65 6.09452,3.78 3.61673,0.84 7.61313,0.15 10.93016,2.18 4.12631,2.33 10.9901,0.77 12.81848,6.25 2.54768,7.28 9.76118,11.71 12.01917,19.13 1.09901,3.16 0.59946,6.71 2.04814,9.76 3.22711,3.42 6.28434,7.25 10.64043,9.31 4.08632,2.01 7.01368,6.34 6.30432,11.03 0.13987,3 -2.56769,4.71 -4.03636,6.96 2.90739,3.72 5.23528,7.78 6.49415,12.36 5.7748,3.23 11.18992,7.67 13.74762,13.97 1.62853,3.54 1.29883,7.51 2.00819,11.26 1.19892,2.11 3.19712,3.65 4.71576,5.55 -3.7766,-0.14 -7.56319,0 -11.30982,0.43 -3.06724,-5.01 -0.61944,-11.53 -4.08633,-16.41 -2.83744,-4.96 -8.93195,-5.77 -13.38795,-8.62 -1.03905,-2.86 -0.88919,-6.05 -2.16802,-8.83 -2.11811,-3.72 -5.74485,-7.11 -5.3552,-11.76 0.68939,-2.66 2.76752,-4.65 3.91647,-7.1 0.18983,-1.22 -1.29883,-1.83 -1.96821,-2.63 -4.39604,-3.54 -9.6613,-6.22 -12.9983,-10.92 -1.60856,-2.71 -1.63854,-5.96 -2.25797,-8.97 -0.66941,-4.77 -4.02636,-8.45 -6.4342,-12.43 -1.91829,-2.64 -3.64673,-5.95 -7.0137,-6.91 -3.60676,-1.14 -7.18352,-2.46 -10.35064,-4.58 -2.12811,0.53 -4.27619,1.76 -6.49415,1.45 -2.0282,-1.63 -3.50685,-3.87 -5.65496,-5.36 -2.9373,-1.4 -6.33424,-0.95 -9.41154,-1.82 -1.82829,-0.72 -3.42685,-1.89 -5.23523,-2.63 -2.0282,0.45 -3.87649,1.53 -5.95469,1.75 -3.89649,-0.29 -7.67307,-2.51 -11.62947,-1.35 -4.0264,1.09 -8.15271,1.7 -12.25902,2.4 -3.05721,0.46 -5.73478,2.24 -8.76208,2.73 -4.26613,-0.57 -7.64312,-3.53 -10.64043,-6.39 -5.964617,7.22 -15.82574,9.53 -21.820341,16.67 -2.68758,4.84 -5.18533,9.87 -7.033666,15.1 -1.049056,6.05 -2.058147,12.64 -6.564089,17.23 -2.997301,2.85 -7.36337,2.54 -11.169942,2.35 -1.208912,8.59 -3.7766,16.92 -7.573181,24.7 0.729343,2.19 1.798381,4.37 1.678489,6.73 -2.218003,3.14 -5.694873,5.08 -8.272553,7.89 -2.437804,2.63 -5.515032,4.52 -8.042755,7.05 0.89919,3.36 1.738434,6.85 0.19982,10.17 -3.956438,0.02 -7.942849,0.35 -11.799376,1.32 0.789289,-2.38 2.8874,-4.73 1.748425,-7.33 -1.908281,-4.85 0.39964,-10.91 5.155359,-13.11 2.987311,-1.44 5.944647,-3.12 8.122685,-5.7 2.317912,-2.1 1.318812,-5.53 1.858326,-8.28 -0.07991,-2.64 1.768407,-4.62 3.137174,-6.67 1.848336,-2.43 2.098111,-5.59 3.027275,-8.41 1.698471,-5.33 0.07991,-11.91 4.575881,-16.12 3.017282,-3.55 7.952838,-2.89 11.999194,-1.96 0.849237,-2.5 1.768409,-5.01 1.918274,-7.67 0.39964,-3.35 -0.409631,-7.39 2.667597,-9.72 4.066339,-3.44 4.426015,-9.19 7.802974,-13.14 2.98731,-4.49 8.432407,-6.15 11.969221,-10.05 2.467781,-2.54 5.884703,-4.06 7.753021,-7.17 z"
     id="path6"
     inkscape:connector-curvature="0"
     style="fill:#fcde80" />
  <path
     fill="#ffce46"
     d=" M 81.79 30.84 C 87.79 23.70 97.66 21.39 103.63 14.17 C 106.63 17.03 110.01 19.99 114.28 20.56 C 117.31 20.07 119.99 18.29 123.05 17.83 C 127.16 17.13 131.29 16.52 135.32 15.43 C 139.28 14.27 143.06 16.49 146.96 16.78 C 149.04 16.56 150.89 15.48 152.92 15.03 C 154.73 15.77 156.33 16.94 158.16 17.66 C 161.24 18.53 164.64 18.08 167.58 19.48 C 169.73 20.97 171.21 23.21 173.24 24.84 C 175.46 25.15 177.61 23.92 179.74 23.39 C 182.91 25.51 186.49 26.83 190.10 27.97 C 193.47 28.93 195.20 32.24 197.12 34.88 C 199.53 38.86 202.89 42.54 203.56 47.31 C 204.18 50.32 204.21 53.57 205.82 56.28 C 209.16 60.98 214.43 63.66 218.83 67.20 C 219.50 68.00 220.99 68.61 220.80 69.83 C 219.65 72.28 217.57 74.27 216.88 76.93 C 216.49 81.58 220.12 84.97 222.24 88.69 C 223.52 91.47 223.37 94.66 224.41 97.52 C 228.87 100.37 234.97 101.18 237.81 106.14 C 241.28 111.02 238.83 117.54 241.90 122.55 C 231.17 124.99 223.28 133.89 219.23 143.75 C 216.80 137.14 213.71 130.22 207.57 126.24 C 199.85 120.80 188.85 120.74 180.98 125.89 C 175.69 129.26 171.33 134.23 169.07 140.11 C 168.25 142.22 167.37 144.34 166.04 146.20 C 164.08 138.79 160.70 131.32 154.24 126.79 C 145.71 120.10 132.67 120.53 124.45 127.52 C 118.92 131.78 116.05 138.33 113.71 144.70 C 111.12 137.34 106.79 130.24 100.01 126.06 C 94.40 122.36 87.30 121.40 80.79 122.75 C 72.55 124.67 66.12 131.47 63.27 139.26 C 61.31 144.28 61.53 149.78 61.89 155.05 C 62.60 139.48 50.86 123.74 34.97 122.06 C 36.51 118.74 35.67 115.25 34.77 111.89 C 37.30 109.36 40.38 107.47 42.82 104.84 C 45.40 102.03 48.88 100.09 51.10 96.95 C 51.22 94.59 50.15 92.41 49.42 90.22 C 53.22 82.44 55.79 74.11 57.00 65.52 C 60.81 65.71 65.18 66.02 68.18 63.17 C 72.69 58.58 73.70 51.99 74.75 45.94 C 76.60 40.71 79.10 35.68 81.79 30.84 Z"
     id="path8" />
  <path
     fill="#f18f27"
     d=" M 126.33 24.47 C 130.59 21.86 136.47 26.10 135.12 30.93 C 134.73 35.87 127.14 37.73 124.69 33.35 C 122.20 30.67 123.25 26.18 126.33 24.47 Z"
     id="path10" />
  <path
     fill="#fbe7a8"
     d=" M 92.27 38.20 C 96.18 35.94 101.56 39.64 101.05 44.06 C 100.72 48.59 94.51 50.77 91.19 47.86 C 87.79 45.58 88.43 39.65 92.27 38.20 Z"
     id="path12" />
  <path
     fill="#f18f27"
     d=" M 180.25 40.38 C 185.01 38.28 189.97 44.32 187.67 48.73 C 185.81 52.97 179.05 53.20 176.80 49.23 C 174.69 46.04 176.76 41.50 180.25 40.38 Z"
     id="path14" />
  <path
     fill="#fbe7a8"
     d=" M 145.36 43.41 C 150.30 42.09 154.05 49.25 150.93 52.91 C 148.23 56.55 141.45 55.46 140.23 51.00 C 139.12 47.56 142.04 44.04 145.36 43.41 Z"
     id="path16" />
  <path
     fill="#f6ac38"
     d=" M 121.28 60.41 C 126.25 57.92 131.89 65.10 128.37 69.36 C 126.37 73.49 119.82 73.04 118.21 68.80 C 116.00 65.74 118.43 61.96 121.28 60.41 Z"
     id="path18" />
  <path
     fill="#fbe7a8"
     d=" M 201.36 62.49 C 205.85 62.36 208.83 67.97 206.49 71.71 C 204.21 75.72 197.68 75.31 195.76 71.15 C 193.70 67.26 197.27 62.70 201.36 62.49 Z"
     id="path20" />
  <path
     fill="#f18f27"
     d=" M 85.27 64.39 C 88.59 63.52 92.61 66.37 92.08 70.00 C 92.63 74.23 87.24 77.61 83.66 75.27 C 79.45 72.85 80.57 65.50 85.27 64.39 Z"
     id="path22" />
  <path
     fill="#f6ac38"
     d=" M 167.23 66.37 C 172.20 64.17 176.94 71.60 173.28 75.36 C 170.99 79.49 164.24 78.57 162.61 74.35 C 161.48 71.01 163.94 67.27 167.23 66.37 Z"
     id="path24" />
  <path
     fill="#fbe7a8"
     d=" M 59.22 79.38 C 63.09 77.16 68.50 80.68 67.99 85.13 C 67.61 90.05 60.45 92.37 57.25 88.67 C 54.58 85.91 55.67 80.82 59.22 79.38 Z"
     id="path26" />
  <path
     fill="#fbe7a8"
     d=" M 138.16 83.27 C 142.26 81.63 147.03 85.77 146.03 90.06 C 145.40 94.27 139.56 96.81 136.38 93.58 C 132.68 90.89 133.98 84.72 138.16 83.27 Z"
     id="path28" />
  <path
     fill="#f6ac38"
     d=" M 211.39 92.46 C 215.06 91.92 219.45 95.05 219.06 99.00 C 219.52 104.35 211.22 107.30 208.20 102.86 C 204.65 99.63 206.80 93.29 211.39 92.46 Z"
     id="path30" />
  <path
     fill="#fbe7a8"
     d=" M 87.28 94.40 C 91.85 92.92 96.84 98.21 94.47 102.61 C 92.81 106.66 86.67 107.23 84.14 103.76 C 81.51 100.66 83.56 95.51 87.28 94.40 Z"
     id="path32" />
  <path
     fill="#fbe7a8"
     d=" M 185.32 94.46 C 189.47 91.87 195.30 96.42 194.07 101.06 C 193.36 105.34 187.59 107.30 184.32 104.50 C 181.10 101.90 181.78 96.46 185.32 94.46 Z"
     id="path34" />
  <path
     fill="#f6ac38"
     d=" M 114.29 104.34 C 120.10 102.42 124.52 110.60 120.81 114.85 C 117.42 119.39 109.44 115.21 109.98 110.02 C 109.51 107.23 111.77 104.99 114.29 104.34 Z"
     id="path36" />
  <path
     fill="#f18f27"
     d=" M 159.31 105.47 C 162.52 103.70 167.36 104.98 168.47 108.71 C 170.26 113.43 164.43 118.55 159.97 116.21 C 155.92 114.32 155.60 107.86 159.31 105.47 Z"
     id="path38" />
  <path
     fill="#f6ac38"
     d=" M 55.34 107.44 C 58.12 106.16 61.94 106.50 63.79 109.19 C 67.89 113.75 60.74 121.62 55.78 118.22 C 51.98 116.12 51.48 109.68 55.34 107.44 Z"
     id="path40" />
  <path
     fill="#fbe7a8"
     d=" M 220.29 113.42 C 224.08 111.42 229.67 114.61 229.01 119.08 C 228.72 123.66 222.32 126.38 219.01 122.95 C 215.77 120.52 216.65 114.98 220.29 113.42 Z"
     id="path42" />
  <path
     fill="#9a1c1f"
     d=" M 23.16 123.38 C 27.02 122.41 31.01 122.08 34.97 122.06 C 50.86 123.74 62.60 139.48 61.89 155.05 C 63.63 172.69 64.20 190.44 66.47 208.01 C 60.53 215.56 53.41 222.22 48.49 230.53 C 45.22 235.99 41.01 241.07 39.37 247.34 C 37.40 255.56 36.72 264.12 37.54 272.55 C 39.99 288.53 49.70 302.87 62.58 312.39 C 67.61 315.97 75.12 318.12 75.94 325.27 C 75.80 335.87 77.86 346.37 77.97 356.97 C 78.14 370.07 80.14 383.08 80.06 396.19 C 72.03 396.13 63.93 396.68 55.97 395.37 C 52.39 394.27 49.79 391.35 47.07 388.93 C 43.56 385.37 39.57 381.61 38.64 376.47 C 37.30 369.44 35.74 362.44 34.82 355.33 C 31.55 331.25 28.48 307.15 25.38 283.05 C 23.60 269.34 21.67 255.64 20.45 241.87 C 19.96 235.18 17.94 228.69 17.79 221.96 C 17.69 212.86 15.53 203.95 14.68 194.91 C 12.77 180.99 11.28 167.01 9.24 153.11 C 8.52 147.44 8.86 141.50 11.26 136.24 C 13.66 130.78 18.13 126.44 23.16 123.38 Z"
     id="path44" />
  <path
     fill="#fbf4f6"
     d=" M 80.79 122.75 C 87.30 121.40 94.40 122.36 100.01 126.06 C 106.79 130.24 111.12 137.34 113.71 144.70 C 114.20 157.19 114.18 169.71 114.42 182.21 C 101.70 187.38 88.68 192.44 77.55 200.68 C 74.07 203.44 70.30 205.77 66.47 208.01 C 64.20 190.44 63.63 172.69 61.89 155.05 C 61.53 149.78 61.31 144.28 63.27 139.26 C 66.12 131.47 72.55 124.67 80.79 122.75 Z"
     id="path46" />
  <path
     fill="#9a1c1f"
     d=" M 124.45 127.52 C 132.67 120.53 145.71 120.10 154.24 126.79 C 160.70 131.32 164.08 138.79 166.04 146.20 C 166.17 156.11 165.95 166.03 165.90 175.95 C 161.25 176.18 156.63 176.96 151.96 176.82 C 139.22 176.56 126.82 179.76 114.42 182.21 C 114.18 169.71 114.20 157.19 113.71 144.70 C 116.05 138.33 118.92 131.78 124.45 127.52 Z"
     id="path48" />
  <path
     fill="#fbf4f6"
     d=" M 180.98 125.89 C 188.85 120.74 199.85 120.80 207.57 126.24 C 213.71 130.22 216.80 137.14 219.23 143.75 C 218.50 159.78 217.47 175.82 215.61 191.77 C 207.66 188.88 200.44 184.27 192.28 181.92 C 183.72 178.94 174.61 178.31 165.90 175.95 C 165.95 166.03 166.17 156.11 166.04 146.20 C 167.37 144.34 168.25 142.22 169.07 140.11 C 171.33 134.23 175.69 129.26 180.98 125.89 Z"
     id="path50" />
  <path
     fill="#9a1c1f"
     d=" M 219.23 143.75 C 223.28 133.89 231.17 124.99 241.90 122.55 C 245.65 122.12 249.44 121.98 253.22 122.12 C 260.21 124.16 265.48 129.68 269.88 135.22 C 271.65 143.66 271.60 152.49 270.12 160.99 C 268.68 169.25 269.72 177.82 267.40 185.94 C 266.01 190.52 266.48 195.35 265.90 200.04 C 262.65 224.80 259.38 249.57 256.22 274.35 C 255.85 276.96 255.41 279.57 254.91 282.16 C 246.64 281.56 238.31 282.16 230.09 280.87 C 232.81 276.02 236.13 271.48 238.23 266.31 C 240.61 260.41 243.49 254.52 243.88 248.07 C 244.64 235.11 240.82 222.04 233.82 211.17 C 228.58 203.98 221.70 198.21 215.61 191.77 C 217.47 175.82 218.50 159.78 219.23 143.75 Z"
     id="path52" />
  <path
     d="m 151.80225,175.58272 c 4.7167,0.1414 9.3829,-0.6464 14.0794,-0.8787 8.7971,2.3836 17.9982,3.0199 26.6438,6.0297 8.2416,2.3735 15.5338,7.0296 23.5633,9.9485 6.1509,6.5044 13.0997,12.3321 18.3921,19.594 7.07,10.9787 10.9282,24.1794 10.1606,37.269 -0.3939,6.5145 -3.3027,12.4634 -5.7065,18.4224 -2.121,5.2217 -5.4742,9.8071 -8.2214,14.7056 8.3022,1.3029 16.7155,0.6969 25.0682,1.3029 10.1404,0.8181 21.5635,-0.4848 30.1687,6.0499 7.0195,5.0803 9.7465,13.7865 11.1504,21.9574 2.222,14.4228 2.1109,29.0779 2.4745,43.632 -0.2121,14.1299 -0.4242,28.3002 -2.2725,42.319 -1.3736,8.0093 -3.6663,16.6549 -10.1707,22.0685 -4.949,4.4844 -11.7867,5.8782 -18.2507,6.3125 -30.8959,1.5857 -61.8524,2.8482 -92.7786,1.515 -13.5138,-0.505 -27.068,-0.303 -40.5313,-1.6766 -7.2013,-0.7777 -14.8874,-2.5452 -19.9677,-8.0901 -5.0702,-5.1106 -5.9994,-12.524 -8.3527,-18.9779 -2.323,-1.1413 -5.0601,-0.3333 -7.554797,-0.5454 -0.3232,0 -0.9696,-0.0101 -1.2928,-0.0101 2.787597,-0.1313 5.575197,-0.2121 8.372897,-0.2828 -0.0606,-7.878 -0.6464,-15.7257 -1.2019,-23.5734 -0.3434,-14.3622 -0.2525,-28.7345 -0.0303,-43.1068 -6.827597,-1.515 -13.776397,-2.727 -20.341397,-5.2318 -3.2017,-1.212 -6.4741,-2.2018 -9.7566,-3.1108 -0.1515,1.4241 -0.2929,2.8583 -0.4242,4.2925 -0.8282,-7.2215 -8.4133,-9.393 -13.4936,-13.0088 -13.0088,-9.6152 -22.8159,-24.0986 -25.2904,-40.2384 -0.8282,-8.5143 -0.1414,-17.1599 1.8483,-25.4621 1.6564,-6.3327 5.9085,-11.4635 9.2112,-16.9781 4.9692,-8.3931 12.1604,-15.1197 18.1598,-22.7452 3.8683,-2.2624 7.676,-4.6157 11.1908,-7.4033 11.2413,-8.3224 24.391497,-13.433 37.238697,-18.6547 12.524,-2.4745 25.048,-5.7065 37.9154,-5.4439 z"
     id="path54"
     inkscape:connector-curvature="0"
     style="fill:#d42627" />
  <path
     fill="#fbf4f6"
     d=" M 127.05 189.79 C 135.09 189.00 143.03 187.31 151.11 186.89 C 163.82 186.32 176.69 187.23 189.02 190.51 C 197.62 193.74 206.54 197.23 213.19 203.83 C 220.68 210.83 227.96 218.96 230.39 229.19 C 231.98 236.28 232.63 243.69 231.22 250.86 C 230.04 258.26 225.84 264.61 222.18 270.98 C 220.06 274.41 217.98 278.09 214.62 280.44 C 208.84 281.73 202.88 280.49 197.03 280.96 C 186.28 280.86 175.52 281.67 164.78 280.96 C 165.97 275.64 166.48 270.21 167.33 264.84 C 167.67 261.92 170.22 260.08 172.10 258.10 C 176.79 253.70 180.22 248.21 184.63 243.57 C 189.54 238.17 194.99 231.87 194.61 224.10 C 193.70 217.67 190.82 211.43 186.27 206.77 C 179.82 200.04 168.83 198.08 160.56 202.51 C 155.61 204.64 151.91 208.62 147.93 212.11 C 145.19 209.18 143.31 205.36 139.76 203.27 C 134.74 200.28 128.75 199.95 123.09 199.27 C 118.54 198.86 113.41 198.56 109.58 201.51 C 105.16 205.07 101.00 209.52 99.46 215.13 C 98.29 220.47 100.14 225.83 102.40 230.61 C 106.12 238.45 109.84 246.30 114.25 253.79 C 115.88 256.62 117.45 259.69 117.24 263.07 C 117.03 271.92 114.17 280.77 116.30 289.60 C 115.15 292.68 112.54 295.28 111.50 298.53 C 108.64 305.21 107.33 312.51 107.43 319.76 C 95.47 319.31 83.74 315.56 73.43 309.56 C 65.27 303.42 58.57 295.49 52.91 287.02 C 50.26 283.23 49.18 278.64 48.54 274.13 C 45.86 259.93 50.98 245.37 58.67 233.56 C 71.84 215.79 90.74 202.57 111.56 195.30 C 116.71 193.44 121.45 190.19 127.05 189.79 Z"
     id="path56" />
  <path
     fill="#9a1c1f"
     d=" M 109.58 201.51 C 113.41 198.56 118.54 198.86 123.09 199.27 C 128.75 199.95 134.74 200.28 139.76 203.27 C 143.31 205.36 145.19 209.18 147.93 212.11 C 151.91 208.62 155.61 204.64 160.56 202.51 C 168.83 198.08 179.82 200.04 186.27 206.77 C 190.82 211.43 193.70 217.67 194.61 224.10 C 194.99 231.87 189.54 238.17 184.63 243.57 C 180.22 248.21 176.79 253.70 172.10 258.10 C 170.22 260.08 167.67 261.92 167.33 264.84 C 166.48 270.21 165.97 275.64 164.78 280.96 L 164.63 281.73 C 159.41 281.86 154.03 282.55 148.97 280.90 C 151.26 275.88 152.15 270.34 152.83 264.90 C 153.31 261.39 152.90 257.65 154.46 254.37 C 155.73 251.53 157.87 249.20 160.02 247.00 C 165.88 241.16 171.06 234.70 176.48 228.46 C 178.13 226.30 180.59 223.99 179.92 221.00 C 178.88 216.72 175.79 212.08 171.00 211.76 C 166.87 211.99 163.28 214.54 160.53 217.46 C 156.02 222.36 152.10 227.76 147.75 232.80 C 146.61 234.26 143.93 235.10 142.79 233.18 C 138.95 226.59 137.63 218.48 132.22 212.83 C 128.34 211.39 124.08 211.40 119.99 211.07 C 116.33 210.39 112.16 214.19 113.95 217.93 C 117.21 226.87 122.78 234.72 126.54 243.44 C 128.33 247.70 131.32 251.46 132.39 256.02 C 132.34 265.15 129.91 274.13 130.30 283.30 C 125.29 284.59 120.84 287.21 116.30 289.60 C 114.17 280.77 117.03 271.92 117.24 263.07 C 117.45 259.69 115.88 256.62 114.25 253.79 C 109.84 246.30 106.12 238.45 102.40 230.61 C 100.14 225.83 98.29 220.47 99.46 215.13 C 101.00 209.52 105.16 205.07 109.58 201.51 Z"
     id="path58" />
  <path
     fill="#fbf4f6"
     d=" M 113.95 217.93 C 112.16 214.19 116.33 210.39 119.99 211.07 C 124.08 211.40 128.34 211.39 132.22 212.83 C 137.63 218.48 138.95 226.59 142.79 233.18 C 143.93 235.10 146.61 234.26 147.75 232.80 C 152.10 227.76 156.02 222.36 160.53 217.46 C 163.28 214.54 166.87 211.99 171.00 211.76 C 175.79 212.08 178.88 216.72 179.92 221.00 C 180.59 223.99 178.13 226.30 176.48 228.46 C 171.06 234.70 165.88 241.16 160.02 247.00 C 157.87 249.20 155.73 251.53 154.46 254.37 C 152.90 257.65 153.31 261.39 152.83 264.90 C 152.15 270.34 151.26 275.88 148.97 280.90 C 148.79 281.25 148.44 281.95 148.26 282.29 C 142.26 282.37 136.28 282.78 130.30 283.30 C 129.91 274.13 132.34 265.15 132.39 256.02 C 131.32 251.46 128.33 247.70 126.54 243.44 C 122.78 234.72 117.21 226.87 113.95 217.93 Z"
     id="path60" />
  <path
     fill="#fbf4f6"
     d=" M 178.29 317.76 C 179.61 318.36 180.92 319.00 182.17 319.73 C 200.46 330.87 219.03 341.54 237.13 352.99 C 221.51 362.91 205.51 372.20 189.65 381.73 C 185.83 383.83 182.29 386.45 178.27 388.19 C 178.32 364.71 178.29 341.23 178.29 317.76 Z"
     id="path62" />
  <path
     d="m 76.36,321.02 c 3.25,0.9 6.49,1.88 9.66,3.08 6.5,2.48 13.38,3.68 20.14,5.18 -0.22,14.23 -0.31,28.46 0.03,42.68 0.55,7.77 1.35564,17.79636 1.41564,25.59636 -6.77294,-0.7878 -7.01513,-0.9169 -12.60564,-0.54636 -5.01,0.14 -9.94,-1.05 -14.94,-0.82 0.08,-13.11 -1.92,-26.12 -2.09,-39.22 -0.11,-10.6 -2.17,-21.1 -2.03,-31.7 0.13,-1.42 0.27,-2.84 0.42,-4.25 z"
     id="path64"
     inkscape:connector-curvature="0"
     style="fill:#fbf4f6"
     sodipodi:nodetypes="cccccccccc" />
</svg>
