<?xml version="1.0" encoding="utf-8"?>
<!-- Generator: Adobe Illustrator 19.0.0, SVG Export Plug-In . SVG Version: 6.00 Build 0)  -->
<svg version="1.1" id="Calque_1" xmlns="http://www.w3.org/2000/svg" xmlns:xlink="http://www.w3.org/1999/xlink" x="0px" y="0px"
	 viewBox="-273 365 64 64" style="enable-background:new -273 365 64 64;" xml:space="preserve">
<style type="text/css">
	.st0{fill:#212528;}
	.st1{fill:#DDDDDD;}
	.st2{fill:#BFBEBE;}
	.st3{fill:#3E4347;}
	.st4{fill:#535759;}
</style>
<path class="st0" d="M-211,371c0-2-2-4-4-4h-52c-2,0-4,2-4,4v38h60V371z"/>
<path class="st1" d="M-271,409v4c0,2,2,4,4,4h52c2,0,4-2,4-4v-4H-271z"/>
<path class="st2" d="M-249,419c0,4-4,4-8,4h32c-4,0-8,0-8-4v-2h-16V419"/>
<path class="st3" d="M-267,371h52v34h-52V371z"/>
<g>
	<circle class="st4" cx="-241" cy="412.9" r="1"/>
	<path class="st4" d="M-257,423h32v4h-32V423z"/>
</g>
</svg>
