<?xml version="1.0" encoding="utf-8"?>
<!-- Generator: Adobe Illustrator 19.0.0, SVG Export Plug-In . SVG Version: 6.00 Build 0)  -->
<svg version="1.1" id="logo" xmlns="http://www.w3.org/2000/svg" xmlns:xlink="http://www.w3.org/1999/xlink" x="0px" y="0px"
	 viewBox="-274 358 62 77" style="enable-background:new -274 358 62 77;" xml:space="preserve">
<style type="text/css">
	.st0{fill:#4A89DC;}
</style>
<g id="_x23_ffffffff">
	<path class="st0" d="M-243.1,368.9c4.1-4.7,9.3-9.8,16.1-9.8c6.7,0.1,11.4,5.4,14.3,10.8c0.4,0.8,0.7,1.7,0.7,2.6v3.6
		c0,0.7-0.1,1.4-0.4,2.1c-3.3,7.5-9.5,13.4-13.4,20.6c-0.3,0.5-0.5,1.1-0.6,1.7c-1.2,7.6-1.9,15.3-2.4,23c-0.2,3.1-2.2,5.7-4.5,7.7
		c-5.1,4.3-13.7,3.5-17.9-1.7c-2.4-3-5.1-5.8-6.8-9.2c-0.2-0.3-0.3-0.6-0.4-1c-1.8-6.5,1.4-13.8-2.4-19.8c-4-6.6-9-12.6-12.1-19.6
		c-3-6.3,0.6-14.6,7.1-17.1c0.3-0.1,0.5-0.2,0.8-0.2c4-0.9,8.2-0.7,12.2-0.1C-248.5,363-245.9,366.3-243.1,368.9 M-232.3,367.8
		c-3.1,2.7-5.2,6.5-6.5,8.8c-2.7,4.7-4.3,6.3-5.2,7c-1,0.8-1-1.3-3.9-7.2c-1.2-2.4-2.6-4.3-4.5-6.6c-0.6-0.7-1.3-1.2-2.2-1.5
		c-3.3-1.2-5.9-1-8.7,0.5c-0.3,0.1-0.5,0.3-0.7,0.5c-0.1,0-0.1,0.1-0.2,0.1c-1.8,1.6-2.1,4.2-1,6.3c1.6,3.1,4,5.8,5.8,8.8
		c2.6,3.9,5.5,7.8,7.9,11.9c0.3,0.5,0.5,1.1,0.6,1.7c0.8,4.9-0.2,9.9,0.3,14.8c0.1,0.8,0.3,1.6,0.8,2.2c1.7,2.6,3.7,5,5.6,7.5
		c2.4,3,7.1,0.2,7.1-3.1c0.2-7.2,1.5-14.3,1.2-21.5c-0.3-3.4,2.4-5.8,4.2-8.4c3.7-5,7.5-9.9,10.5-15.4c1.6-2.5-1-5.1-2.6-6.9
		c-2.1-2.3-5.7-1.5-8,0.1C-231.9,367.5-232.1,367.7-232.3,367.8z"/>
</g>
</svg>
